<svg id="レイヤー_1" data-name="レイヤー 1" xmlns="http://www.w3.org/2000/svg" viewBox="0 0 632.62 152.77"><defs><style>.cls-1{fill:#0797e4;}</style></defs><title>access</title><circle class="cls-1" cx="326.7" cy="117.12" r="10.79"/><circle class="cls-1" cx="270.63" cy="117.12" r="10.79"/><circle class="cls-1" cx="381.58" cy="117.12" r="10.79"/><circle class="cls-1" cx="438.7" cy="117.12" r="10.79"/><circle class="cls-1" cx="214.75" cy="117.12" r="10.79"/><path d="M233.57,12.56a20,20,0,0,0-1.66-5.19,38.92,38.92,0,0,1,5.4-.13c.54,0,.83.21.83.62a9.07,9.07,0,0,0,.08,3l.62,3.49,3.41-.58c2.37-.42,5.27-.91,7.43-1.49.21,0,.38.16.46.45a29.25,29.25,0,0,1,.83,3.57c0,.29-.21.42-.62.46-1.91.33-4.86.79-6.94,1.16l-3.65.67,1,5.31,6-1a65.85,65.85,0,0,0,6.52-1.37c.54-.12.66.05.7.46a24.13,24.13,0,0,1,.71,3.32.66.66,0,0,1-.63.71c-1.24.17-3.73.58-6.68,1.08l-5.73,1,.95,4.61c.58,2.79,1.29,5.44,1.83,7.52,0,.21-.17.33-.54.46a29,29,0,0,1-3.78.87c-.54,0-.79-.17-.83-.5-.29-1.53-.75-4.44-1.33-7.1L237,29l-5.64,1c-2.83.5-5.15,1-6.73,1.41a.65.65,0,0,1-1-.46c-.41-1.2-.83-2.78-1.16-4.11,2.53-.29,4.74-.62,7.73-1.12l5.81-.95-1-5.36-3.9.62c-2.29.37-5.07,1-6.19,1.25-.42.12-.62,0-.79-.42a36,36,0,0,1-1.16-4.15c2.24-.17,4.52-.46,7.39-.91l3.78-.59Z"/><path d="M276.43,27.46a35,35,0,0,0-4.57,1.62,2.15,2.15,0,0,1-.75.21c-.29,0-.49-.16-.7-.58A22.93,22.93,0,0,1,269,25.06a48.41,48.41,0,0,0,6.31-1.38l2.49-.66-.91-3.49a16,16,0,0,0-1.71-4.19c1.71-.21,3.78-.46,4.86-.46.67,0,1,.25.87.83a6.9,6.9,0,0,0,.25,3l.79,3.12,9-2.29a4.55,4.55,0,0,0,2.08-.91.71.71,0,0,1,.5-.25,1.33,1.33,0,0,1,.7.37,22.33,22.33,0,0,1,2.45,2.08,1,1,0,0,1,.34.62,1.22,1.22,0,0,1-.46.83,3.17,3.17,0,0,0-.67.88,49,49,0,0,1-4.69,7.8c-.21.25-.37.38-.62.38a1.24,1.24,0,0,1-.62-.21,11.13,11.13,0,0,0-3.33-1.25A30.1,30.1,0,0,0,291,23.52l-8,2.12,1.91,7.51c.71,2.62,1.29,4.65,1.91,7a.8.8,0,0,1-.54,1.12,13.67,13.67,0,0,1-2.74.83c-.54.13-.87.08-1-.62-.5-2.33-1.08-4.61-1.66-6.94l-1.95-7.68Z"/><path d="M315.51,10.9a.8.8,0,0,1,.58-.34,1.12,1.12,0,0,1,.54.21,43.07,43.07,0,0,1,7.93,5.9c.25.25.38.41.38.58a1,1,0,0,1-.25.54c-.62.83-2,2.49-2.58,3.11-.2.21-.33.34-.49.34s-.34-.13-.54-.34a44.56,44.56,0,0,0-8.48-6.77C313.52,13,314.72,11.73,315.51,10.9Zm3.61,21.88a61.65,61.65,0,0,0,12-7.72,62.47,62.47,0,0,0,11.38-11.3,19,19,0,0,0,1.16,4.86,1.94,1.94,0,0,1,.21.79c0,.37-.21.7-.66,1.24a67.62,67.62,0,0,1-9.55,8.81,90.25,90.25,0,0,1-12.54,8.14,14.35,14.35,0,0,0-2.79,1.91,1.12,1.12,0,0,1-.74.41,1.07,1.07,0,0,1-.71-.45,28.77,28.77,0,0,1-3.32-4.61A25.43,25.43,0,0,0,319.12,32.78Z"/><path d="M362.57,21a20.71,20.71,0,0,0,1.86-6.15A40,40,0,0,1,369.58,17a.7.7,0,0,1,.5.66,1.22,1.22,0,0,1-.41.83A8,8,0,0,0,368.21,21a46,46,0,0,1-8.88,14,1.59,1.59,0,0,1-1.17.62,1.38,1.38,0,0,1-1-.41,11.45,11.45,0,0,0-3.66-1.79A36.91,36.91,0,0,0,362.57,21Zm15.53-5.65a.94.94,0,0,1,.58-.25.83.83,0,0,1,.62.33,52.26,52.26,0,0,1,10.42,15.24,1,1,0,0,1,.17.58.8.8,0,0,1-.42.67,25,25,0,0,1-3.44,2.2c-.54.25-.83.16-1-.38-3.07-6.93-6.14-11.79-10.26-16.15C376.27,16.58,377.39,15.8,378.1,15.34Zm14-2.83a4.49,4.49,0,0,1-9,0,4.38,4.38,0,0,1,4.49-4.44A4.43,4.43,0,0,1,392.09,12.51Zm-6.93,0a2.45,2.45,0,0,0,4.9,0,2.45,2.45,0,0,0-4.9,0Z"/><path d="M422.12,11.14a6.17,6.17,0,0,0,2.87-.37.71.71,0,0,1,.45-.17,1.37,1.37,0,0,1,.71.34,15.06,15.06,0,0,1,2.7,2.9,1.16,1.16,0,0,1,.2.54,1.14,1.14,0,0,1-.53.83A7.72,7.72,0,0,0,427,17a64.82,64.82,0,0,1-5.32,7.77,95.9,95.9,0,0,1,11.51,10.05,1,1,0,0,1,.33.58,1.08,1.08,0,0,1-.29.62,23.05,23.05,0,0,1-2.78,2.82.73.73,0,0,1-.5.25.82.82,0,0,1-.58-.33,75.64,75.64,0,0,0-10.8-10.3,60,60,0,0,1-13.95,11,2.81,2.81,0,0,1-1,.33.91.91,0,0,1-.7-.38,11.53,11.53,0,0,0-3.49-2.7,50.25,50.25,0,0,0,14.61-10.58,51,51,0,0,0,7.81-10.43l-10.71,0c-2.16,0-4.32.09-6.56.25-.34,0-.46-.25-.54-.7a23.93,23.93,0,0,1-.38-4.32c2.25.16,4.32.16,7,.16Z"/></svg>