<?xml version="1.0" encoding="utf-8"?>
<!-- Generator: Adobe Illustrator 22.0.1, SVG Export Plug-In . SVG Version: 6.00 Build 0)  -->
<svg version="1.1"
	 id="svg4912" xmlns:cc="http://creativecommons.org/ns#" xmlns:dc="http://purl.org/dc/elements/1.1/" xmlns:rdf="http://www.w3.org/1999/02/22-rdf-syntax-ns#" xmlns:svg="http://www.w3.org/2000/svg"
	 xmlns="http://www.w3.org/2000/svg" xmlns:xlink="http://www.w3.org/1999/xlink" x="0px" y="0px" viewBox="0 0 278.7 60.1"
	 style="enable-background:new 0 0 278.7 60.1;" xml:space="preserve">
<style type="text/css">
	.st0{fill:#FFFFFF;}
</style>
<g id="layer1" transform="translate(-56.248484,-202.48817)">
	<g id="flowRoot5460">
		
			<image style="overflow:visible;opacity:0.19;" width="296" height="77" xlink:href="2C38130C8256F545.png"  transform="matrix(1 0 0 1 50.7445 197.0801)">
		</image>
		<g>
			<g>
				<path id="path5845_12_" class="st0" d="M64.6,211.4c-3.7,0-5.5-0.1-7.8-0.3c0.3,2.2,0.3,4,0.3,7.9v35.8c0,3-0.1,5.8-0.4,7.4h7.2
					v-3.3h31.6v3.3h7.4c-0.3-2-0.4-3.6-0.4-7.4v-35.8c0-4,0.1-5.7,0.3-7.9c-2.4,0.3-4.2,0.3-7.9,0.3H80.1c1.2-2.4,2.1-4.6,3.3-7.7
					l-8.1-0.8c-0.6,2.9-1.5,5.6-2.9,8.4H64.6L64.6,211.4z M64,217.9h31.6v7.2H64V217.9z M64,231.3h31.6v7.3H64V231.3z M64,244.7
					h31.6v7.7H64V244.7z"/>
				<path id="path5847_12_" class="st0" d="M151.6,213.1H137c-3.5,0-6.1-0.1-8.1-0.4v7.7c2-0.3,4.9-0.4,8.1-0.4h37.2
					c3.3,0,6.1,0.1,8.3,0.4v-7.7c-2,0.3-4.8,0.4-8.3,0.4h-15.4v-4.4c0-1.8,0.1-3.4,0.4-4.9h-8.1c0.3,1.8,0.4,3.1,0.4,5L151.6,213.1
					L151.6,213.1z M134.9,252.5c-3.5,0-6.1-0.1-8.3-0.4v7.7c2.1-0.3,4.9-0.4,8.3-0.4h41.7c3.4,0,5.9,0.1,8.1,0.4v-7.7
					c-2.2,0.3-4.9,0.4-8.1,0.4h-11.5c2.5-5.4,5.9-14.5,8.2-22.1c1.4-4.4,1.5-4.8,2.2-6.1l-8.3-2.4c-0.8,6.7-5.7,22.5-9.6,30.7H134.9
					L134.9,252.5z M136.4,224.8c3.1,7.6,5.4,15.9,7,25l7.2-2.6c-2.9-12.1-4.5-17.2-7.3-24.9L136.4,224.8L136.4,224.8z"/>
				<path id="path5849_12_" class="st0" d="M212.6,206.2c0.2,1.7,0.3,2.6,0.3,4.4c0,0.9,0,2.2-0.1,4.2c-0.4,16.1-0.5,22.5-0.5,25.8
					c0,8.6,1.9,13.5,6.3,16.4c2.7,1.8,6.8,2.8,11.2,2.8c8.1,0,14.4-2.7,19.2-8.1c3.1-3.5,5.1-7.7,7.6-16.3c-3.1-1.4-4.3-2.1-7.7-4.9
					c-0.7,4.4-1.5,7.4-2.9,10.8c-3,7-8.6,10.9-15.5,10.9c-4,0-7.1-1.2-8.6-3.3c-1.3-1.9-1.7-4.2-1.7-10.3c0-4.5,0.4-17.5,0.6-23.5
					c0.3-4.9,0.4-6.8,0.8-8.6L212.6,206.2L212.6,206.2z"/>
				<path id="path5851_12_" class="st0" d="M281.3,222.2c0.6-0.1,0.9-0.1,1.2-0.1c0.5,0,1.4,0,2.6,0.1c1.1,0.1,1.7,0.1,2,0.1h3.7
					c0.1,0,0.4,0,0.8-0.1c-2.1,11.4-7,26.3-11.5,34.4l8.1,3.1c4.2-11.3,5.3-14.5,7.2-21.2c1.7-5.8,3.3-12.6,4-16.6
					c2.1-0.1,7.2-0.7,10.5-1.3c1.5-0.3,1.5-0.3,2-0.3l-0.3-7.4c-3.2,1-6.2,1.5-10.9,1.9c0.3-1.5,0.3-1.9,0.6-3.6
					c0.8-4.7,0.8-4.7,1.2-6.1l-8.4-0.8c0.1,0.5,0.1,0.9,0.1,1.2c0,1.8-0.6,6.7-1.2,9.8c-1.5,0.1-2.2,0.1-2.9,0.1
					c-3.7,0-6.3-0.2-8.6-0.6L281.3,222.2L281.3,222.2z M332.1,223.7c-4-0.1-4.6-0.1-6.3-0.1c-6.9,0-10,0.3-19.1,2l0.6,7
					c6.3-1.4,10.6-1.9,16.9-1.9c3.2,0,5,0.1,8.1,0.4L332.1,223.7L332.1,223.7z M306.9,237.1c-3.5,4.8-4.7,7.7-4.7,11.1
					c0,3.2,1.8,6.3,4.5,7.9c3.1,1.7,7.2,2.6,12.9,2.6c3.8,0,6.6-0.3,11.9-1c1.5-0.3,2-0.3,3.1-0.4l-0.6-7.9
					c-3.7,1.3-9.9,2.4-14.5,2.4c-6.4,0-9.6-1.7-9.6-4.9c0-2.2,0.8-3.8,3.3-7L306.9,237.1L306.9,237.1z"/>
			</g>
		</g>
	</g>
</g>
</svg>
