<?xml version="1.0" encoding="utf-8"?>
<!-- Generator: Adobe Illustrator 22.0.1, SVG Export Plug-In . SVG Version: 6.00 Build 0)  -->
<svg version="1.1"
	 id="svg4912" xmlns:cc="http://creativecommons.org/ns#" xmlns:dc="http://purl.org/dc/elements/1.1/" xmlns:rdf="http://www.w3.org/1999/02/22-rdf-syntax-ns#" xmlns:svg="http://www.w3.org/2000/svg"
	 xmlns="http://www.w3.org/2000/svg" xmlns:xlink="http://www.w3.org/1999/xlink" x="0px" y="0px" viewBox="0 0 278.7 60.1"
	 style="enable-background:new 0 0 278.7 60.1;" xml:space="preserve">
<style type="text/css">
	.st0{fill:#FFFFFF;}
</style>
<g>
	<path class="st0" d="M58.4,26.3h1.8v5.3c0,0.6,0.1,1,0.2,1.3c0.2,0.5,0.7,0.7,1.4,0.7c0.7,0,1.2-0.2,1.4-0.7
		c0.1-0.3,0.2-0.7,0.2-1.3v-5.3h1.8v5.3c0,0.9-0.1,1.6-0.4,2.1c-0.5,0.9-1.5,1.4-3,1.4s-2.5-0.5-3-1.4c-0.3-0.5-0.4-1.2-0.4-2.1
		V26.3z"/>
	<path class="st0" d="M67.9,26.3h1.9l3.4,6v-6h1.7v8.6h-1.8l-3.5-6.1v6.1h-1.7V26.3z"/>
	<path class="st0" d="M79.2,34.9h-1.8v-8.6h1.8V34.9z"/>
	<path class="st0" d="M86.8,26.3h1.9l-2.9,8.6H84l-2.9-8.6H83l1.9,6.6L86.8,26.3z"/>
	<path class="st0" d="M97,27.8h-4.6v1.8h4.2v1.5h-4.2v2.2h4.8v1.6h-6.5v-8.6H97V27.8z"/>
	<path class="st0" d="M105.1,26.5c0.3,0.1,0.6,0.3,0.8,0.6c0.2,0.2,0.3,0.5,0.4,0.7c0.1,0.3,0.2,0.6,0.2,0.9c0,0.4-0.1,0.8-0.3,1.2
		s-0.5,0.7-1,0.8c0.4,0.2,0.7,0.4,0.8,0.7s0.2,0.7,0.2,1.4v0.6c0,0.4,0,0.7,0,0.8c0,0.2,0.2,0.4,0.3,0.5v0.2h-2
		c-0.1-0.2-0.1-0.3-0.1-0.5c0-0.2-0.1-0.5-0.1-0.7l0-0.8c0-0.6-0.1-0.9-0.3-1.1c-0.2-0.2-0.5-0.3-1-0.3h-1.8v3.4h-1.8v-8.6h4.1
		C104.3,26.3,104.8,26.4,105.1,26.5z M101.4,27.8v2.3h1.9c0.4,0,0.7,0,0.9-0.1c0.3-0.2,0.5-0.5,0.5-1c0-0.5-0.2-0.9-0.5-1.1
		c-0.2-0.1-0.5-0.2-0.8-0.2H101.4z"/>
	<path class="st0" d="M110.4,32.3c0.1,0.4,0.2,0.7,0.3,0.9c0.3,0.4,0.8,0.5,1.5,0.5c0.4,0,0.8,0,1.1-0.1c0.5-0.2,0.8-0.5,0.8-1
		c0-0.3-0.1-0.5-0.4-0.7c-0.3-0.2-0.7-0.3-1.2-0.4l-0.9-0.2c-0.9-0.2-1.6-0.4-1.9-0.7c-0.6-0.4-0.9-1-0.9-1.9c0-0.8,0.3-1.4,0.9-1.9
		s1.4-0.8,2.5-0.8c0.9,0,1.7,0.2,2.4,0.7c0.7,0.5,1,1.2,1,2.1h-1.7c0-0.5-0.3-0.9-0.7-1.1c-0.3-0.1-0.6-0.2-1.1-0.2
		c-0.5,0-0.9,0.1-1.1,0.3c-0.3,0.2-0.4,0.4-0.4,0.8c0,0.3,0.1,0.5,0.4,0.7c0.2,0.1,0.6,0.2,1.1,0.4l1.5,0.4c0.7,0.2,1.2,0.4,1.5,0.6
		c0.5,0.4,0.8,1,0.8,1.8c0,0.8-0.3,1.4-0.9,2s-1.5,0.8-2.6,0.8c-1.1,0-2-0.3-2.7-0.8s-1-1.2-1-2.1H110.4z"/>
	<path class="st0" d="M119.7,34.9h-1.8v-8.6h1.8V34.9z"/>
	<path class="st0" d="M128.5,26.3v1.5H126v7.1h-1.8v-7.1h-2.6v-1.5H128.5z"/>
	<path class="st0" d="M135.4,26.3h2l-2.9,5.4v3.2h-1.8v-3.2l-3-5.4h2.1l1.8,3.8L135.4,26.3z"/>
	<path class="st0" d="M150.1,34.1c-0.7,0.7-1.6,1-2.8,1s-2.2-0.3-2.8-1c-0.9-0.8-1.3-2-1.3-3.6c0-1.6,0.4-2.8,1.3-3.6
		c0.7-0.7,1.6-1,2.8-1s2.2,0.3,2.8,1c0.9,0.8,1.3,2,1.3,3.6C151.4,32.1,150.9,33.3,150.1,34.1z M148.9,32.8c0.4-0.5,0.6-1.3,0.6-2.2
		c0-1-0.2-1.7-0.6-2.2s-1-0.8-1.7-0.8s-1.3,0.3-1.7,0.8s-0.6,1.3-0.6,2.2s0.2,1.7,0.6,2.2s1,0.8,1.7,0.8S148.5,33.4,148.9,32.8z"/>
	<path class="st0" d="M153.7,26.3h6.2v1.5h-4.4v2h3.8v1.5h-3.8v3.6h-1.8V26.3z"/>
	<path class="st0" d="M166.2,26.3h1.8v3.6l3.3-3.6h2.3l-3.5,3.6l3.7,5.1h-2.3l-2.7-3.8l-0.9,0.9v2.9h-1.8V26.3z"/>
	<path class="st0" d="M178.2,26.3h2l3.1,8.6h-2l-0.6-1.8h-3.2l-0.6,1.8h-1.9L178.2,26.3z M178,31.7h2.2l-1.1-3.4L178,31.7z"/>
	<path class="st0" d="M186.6,32.3c0.1,0.4,0.2,0.7,0.3,0.9c0.3,0.4,0.8,0.5,1.5,0.5c0.4,0,0.8,0,1.1-0.1c0.5-0.2,0.8-0.5,0.8-1
		c0-0.3-0.1-0.5-0.4-0.7c-0.3-0.2-0.7-0.3-1.2-0.4l-0.9-0.2c-0.9-0.2-1.6-0.4-1.9-0.7c-0.6-0.4-0.9-1-0.9-1.9c0-0.8,0.3-1.4,0.9-1.9
		c0.6-0.5,1.4-0.8,2.5-0.8c0.9,0,1.7,0.2,2.4,0.7s1,1.2,1,2.1H190c0-0.5-0.3-0.9-0.7-1.1c-0.3-0.1-0.6-0.2-1.1-0.2
		c-0.5,0-0.9,0.1-1.1,0.3s-0.4,0.4-0.4,0.8c0,0.3,0.1,0.5,0.4,0.7c0.2,0.1,0.6,0.2,1.1,0.4l1.5,0.4c0.7,0.2,1.2,0.4,1.5,0.6
		c0.5,0.4,0.8,1,0.8,1.8c0,0.8-0.3,1.4-0.9,2s-1.5,0.8-2.6,0.8c-1.1,0-2-0.3-2.7-0.8c-0.7-0.5-1-1.2-1-2.1H186.6z"/>
	<path class="st0" d="M194.2,26.3h1.8v5.3c0,0.6,0.1,1,0.2,1.3c0.2,0.5,0.7,0.7,1.4,0.7c0.7,0,1.2-0.2,1.4-0.7
		c0.1-0.3,0.2-0.7,0.2-1.3v-5.3h1.8v5.3c0,0.9-0.1,1.6-0.4,2.1c-0.5,0.9-1.5,1.4-3,1.4s-2.5-0.5-3-1.4c-0.3-0.5-0.4-1.2-0.4-2.1
		V26.3z"/>
	<path class="st0" d="M209.5,29c-0.1-0.6-0.5-1-1-1.2c-0.3-0.1-0.6-0.2-1-0.2c-0.7,0-1.3,0.3-1.7,0.8s-0.7,1.3-0.7,2.4
		c0,1.1,0.2,1.8,0.7,2.3s1,0.7,1.7,0.7c0.6,0,1.1-0.2,1.5-0.5c0.4-0.3,0.6-0.8,0.7-1.4h-2v-1.4h3.6v4.6h-1.2l-0.2-1.1
		c-0.3,0.4-0.7,0.7-0.9,0.9c-0.5,0.3-1.1,0.4-1.8,0.4c-1.1,0-2.1-0.4-2.8-1.2c-0.8-0.8-1.1-1.9-1.1-3.3c0-1.4,0.4-2.5,1.2-3.4
		s1.8-1.3,3.1-1.3c1.1,0,2,0.3,2.6,0.8s1,1.3,1.1,2.1H209.5z"/>
	<path class="st0" d="M216.4,26.3h2l3.1,8.6h-2l-0.6-1.8h-3.2l-0.6,1.8h-1.9L216.4,26.3z M216.3,31.7h2.2l-1.1-3.4L216.3,31.7z"/>
</g>
</svg>
