<?xml version="1.0" encoding="UTF-8" standalone="no"?>
<svg
   xmlns:dc="http://purl.org/dc/elements/1.1/"
   xmlns:cc="http://creativecommons.org/ns#"
   xmlns:rdf="http://www.w3.org/1999/02/22-rdf-syntax-ns#"
   xmlns:svg="http://www.w3.org/2000/svg"
   xmlns="http://www.w3.org/2000/svg"
   version="1.1"
   id="svg4912"
   viewBox="0 0 348.43015 75.119816"
   height="21.200481mm"
   width="98.334732mm">
  <defs
     id="defs4914" />
  <metadata
     id="metadata4917">
    <rdf:RDF>
      <cc:Work
         rdf:about="">
        <dc:format>image/svg+xml</dc:format>
        <dc:type
           rdf:resource="http://purl.org/dc/dcmitype/StillImage" />
        <dc:title></dc:title>
      </cc:Work>
    </rdf:RDF>
  </metadata>
  <g
     transform="translate(-56.248484,-202.48817)"
     id="layer1">
    <g
       id="flowRoot5460"
       style="font-style:normal;font-variant:normal;font-weight:600;font-stretch:normal;font-size:80px;line-height:125%;font-family:'ヒラギノ角ゴ Pro';-inkscape-font-specification:'ヒラギノ角ゴ Pro Semi-Bold';letter-spacing:0px;word-spacing:0px;fill:#000044;fill-opacity:1;stroke:none;stroke-width:1px;stroke-linecap:butt;stroke-linejoin:miter;stroke-opacity:1">
      <path
         id="path5845"
         style="letter-spacing:14.80999756px;fill:#ffffff;fill-opacity:1;stroke:none;stroke-opacity:1"
         d="m 75.246272,12.159419 c -4.64,0 -6.88,-0.08 -9.76,-0.4 0.32,2.8 0.4,5.04 0.4,9.84 l 0,44.8 c 0,3.76 -0.16,7.28 -0.48,9.28 l 9.04,0 0,-4.08 39.519998,0 0,4.08 9.2,0 c -0.4,-2.56 -0.48,-4.56 -0.48,-9.28 l 0,-44.8 c 0,-4.96 0.08,-7.12 0.4,-9.84 -2.96,0.32 -5.2,0.4 -9.84,0.4 l -18.559998,0 c 1.44,-3.0400005 2.64,-5.7600005 4.08,-9.6000005 l -10.08,-0.96 c -0.8,3.68 -1.92,7.04 -3.68,10.5600005 l -9.76,0 z m -0.72,8.16 39.519998,0 0,9.04 -39.519998,0 0,-9.04 z m 0,16.72 39.519998,0 0,9.12 -39.519998,0 0,-9.12 z m 0,16.8 39.519998,0 0,9.68 -39.519998,0 0,-9.68 z" />
      <path
         id="path5847"
         style="letter-spacing:14.80999756px;fill:#ffffff;fill-opacity:1;stroke:none;stroke-opacity:1"
         d="m 183.97627,14.319419 -18.24,0 c -4.32,0 -7.68,-0.16 -10.08,-0.56 l 0,9.6 c 2.56,-0.32 6.08,-0.48 10.08,-0.48 l 46.48,0 c 4.16,0 7.68,0.16 10.32,0.48 l 0,-9.6 c -2.48,0.4 -6,0.56 -10.32,0.56 l -19.28,0 0,-5.4400005 c 0,-2.24 0.16,-4.24 0.56,-6.16 l -10.08,0 c 0.4,2.24 0.56,3.92 0.56,6.24 l 0,5.3600005 z m -20.8,49.2 c -4.32,0 -7.6,-0.16 -10.4,-0.48 l 0,9.6 c 2.64,-0.4 6.16,-0.56 10.4,-0.56 l 52.16,0 c 4.24,0 7.36,0.16 10.16,0.56 l 0,-9.6 c -2.72,0.32 -6.08,0.48 -10.16,0.48 l -14.4,0 c 3.12,-6.8 7.36,-18.08 10.24,-27.68 1.76,-5.52 1.84,-6 2.72,-7.68 l -10.32,-2.96 c -0.96,8.32 -7.12,28.16 -12,38.32 l -28.4,0 z m 1.84,-34.56 c 3.84,9.52 6.72,19.92 8.8,31.28 l 8.96,-3.2 c -3.68,-15.12 -5.6,-21.52 -9.12,-31.12 l -8.64,3.04 z" />
      <path
         id="path5849"
         style="letter-spacing:14.80999756px;fill:#ffffff;fill-opacity:1;stroke:none;stroke-opacity:1"
         d="m 260.22627,5.6794185 c 0.24,2.08 0.32,3.2 0.32,5.4400005 0,1.12 0,2.8 -0.08,5.2 -0.48,20.08 -0.64,28.08 -0.64,32.24 0,10.72 2.32,16.88 7.84,20.56 3.36,2.24 8.48,3.52 14,3.52 10.08,0 18,-3.36 24,-10.16 3.92,-4.4 6.32,-9.6 9.52,-20.4 -3.92,-1.76 -5.36,-2.64 -9.68,-6.16 -0.88,5.52 -1.92,9.28 -3.68,13.44 -3.76,8.8 -10.72,13.68 -19.36,13.68 -5.04,0 -8.88,-1.52 -10.72,-4.16 -1.6,-2.4 -2.08,-5.28 -2.08,-12.88 0,-5.68 0.48,-21.92 0.8,-29.36 0.32,-6.16 0.48,-8.4800005 0.96,-10.8000005 l -11.2,-0.16 z" />
      <path
         id="path5851"
         style="letter-spacing:14.80999756px;fill:#ffffff;fill-opacity:1;stroke:none;stroke-opacity:1"
         d="m 346.15627,25.759419 c 0.72,-0.08 1.12,-0.08 1.52,-0.08 0.64,0 1.76,0 3.2,0.08 1.36,0.08 2.16,0.08 2.56,0.08 l 4.64,0 c 0.16,0 0.48,0 1.04,-0.08 -2.64,14.24 -8.8,32.88 -14.32,43.04 l 10.08,3.92 c 5.28,-14.16 6.64,-18.16 8.96,-26.48 2.08,-7.28 4.08,-15.76 4.96,-20.72 2.64,-0.08 9.04,-0.88 13.12,-1.68 1.92,-0.32 1.92,-0.32 2.56,-0.4 l -0.4,-9.2 c -4,1.2 -7.76,1.84 -13.68,2.4 0.32,-1.84 0.4,-2.32 0.8,-4.56 0.96,-5.8400005 0.96,-5.8400005 1.52,-7.6800005 l -10.56,-0.96 c 0.08,0.64 0.08,1.12 0.08,1.44 0,2.24 -0.8,8.4000005 -1.52,12.2400005 -1.84,0.08 -2.72,0.08 -3.68,0.08 -4.64,0 -7.84,-0.24 -10.72,-0.72 l -0.16,9.28 z m 63.44,1.76 c -5.04,-0.08 -5.76,-0.08 -7.92,-0.08 -8.64,0 -12.48,0.4 -23.84,2.56 l 0.72,8.8 c 7.92,-1.76 13.2,-2.32 21.12,-2.32 4,0 6.24,0.16 10.08,0.56 l -0.16,-9.52 z m -31.52,16.8 c -4.4,6 -5.92,9.6 -5.92,13.84 0,4 2.24,7.84 5.68,9.84 3.84,2.16 8.96,3.2 16.08,3.2 4.72,0 8.24,-0.32 14.88,-1.28 1.84,-0.32 2.48,-0.4 3.92,-0.56 l -0.72,-9.84 c -4.64,1.68 -12.32,2.96 -18.16,2.96 -8,0 -12,-2.08 -12,-6.16 0,-2.8 0.96,-4.8 4.16,-8.8 l -7.92,-3.2 z" />
      <path
         id="path5853"
         style="letter-spacing:14.80999756px;fill:#ffffff;fill-opacity:1;stroke:none;stroke-opacity:1"
         d="m 102.52627,131.11942 -9.759998,0 c -3.04,0 -4.72,-0.08 -6.72,-0.24 0.16,1.84 0.32,3.84 0.32,5.92 l 0,11.44 c 0,2.4 -0.16,4.4 -0.32,6.32 2.16,-0.24 3.92,-0.32 6.88,-0.32 l 9.599998,0 0,10.24 c -7.119998,0.56 -14.479998,0.96 -17.759998,0.96 -0.8,0 -1.36,0 -2.4,-0.16 l 1.36,9.12 c 1.44,-0.24 1.6,-0.24 5.36,-0.64 9.6,-0.96 23.279998,-2.8 33.039998,-4.4 0.96,2 1.44,3.36 2.8,7.04 l 7.52,-3.12 c -3.28,-7.84 -4.64,-10.56 -9.52,-18.16 l -6.88,2.8 c 1.36,2.24 2,3.28 2.8,4.72 -4.08,0.56 -4.08,0.56 -8.4,1.04 l 0,-9.44 10.56,0 c 2.4,0 4.56,0.08 6.64,0.32 -0.32,-2.08 -0.32,-3.52 -0.32,-6.24 l 0,-11.92 c 0,-2.48 0,-3.76 0.32,-5.6 -2.08,0.24 -3.52,0.32 -6.4,0.32 l -10.8,0 0,-6.72 c 3.84,-0.32 6.48,-0.56 10.88,-1.04 1.04,1.68 1.68,2.56 3.2,5.28 l 6.96,-4.8 c -4.72,-7.04 -9.04,-12.48 -14.56,-18.16 l -6.64,3.52 c 3.2,3.6 4.4,4.96 6.24,7.36 -5.36,0.4 -11.04,0.72 -16.959998,1.04 2.239998,-3.36 3.199998,-5.04 4.719998,-7.92 2.08,-3.84 2.08,-3.84 2.96,-5.6 l -9.199998,-1.68 c -1.76,5.2 -3.68,9.36 -7.36,15.44 -1.76,0.08 -1.76,0.08 -2.32,0.08 -1.68,0 -2.88,-0.08 -4.16,-0.24 l 0.88,8.4 c 0.96,-0.16 6.8,-0.56 17.439998,-1.12 l 0,6.16 z m 0,7.04 0,8.96 -8.559998,0 0,-8.96 8.559998,0 z m 7.92,0 9.12,0 0,8.96 -9.12,0 0,-8.96 z m -42.159998,2.32 c 0.4,-3.12 0.4,-3.12 0.96,-9.92 l 7.6,0 c 2.56,0 4.08,0.08 5.68,0.24 -0.16,-2.56 -0.24,-5.04 -0.24,-7.44 l 0,-12 c 0,-2.4 0,-4 0.24,-6.08 -1.84,0.16 -3.52,0.24 -6.16,0.24 l -9.68,0 c -3.68,0 -5.68,-0.08 -7.44,-0.48 l 0,8.56 c 1.68,-0.24 3.68,-0.32 6.96,-0.32 l 7.84,0 0,9.76 -6.08,0 c -3.92,0 -4.88,-0.08 -6.64,-0.32 -0.16,9.2 -1.04,18.64 -2.4,25.44 1.84,-0.08 3.36,-0.16 5.52,-0.16 l 9.2,0 c -0.24,8 -0.88,13.36 -2.24,16.72 -0.56,1.6 -1.52,2 -4.48,2 -1.92,0 -4.88,-0.24 -7.84,-0.72 1.04,3.52 1.36,5.2 1.68,8.88 2.4,0.08 4.48,0.16 6.96,0.16 3.36,0 5.36,-0.32 6.96,-1.04 2.8,-1.36 4.32,-3.84 5.36,-8.72 1.2,-5.84 1.52,-9.2 2,-21.2 0.08,-1.68 0.08,-2.24 0.24,-3.84 -1.44,0.16 -2.96,0.24 -5.6,0.24 l -8.4,0 z" />
      <path
         id="path5855"
         style="letter-spacing:14.80999756px;fill:#ffffff;fill-opacity:1;stroke:none;stroke-opacity:1"
         d="m 157.65627,110.79942 c 0.24,1.76 0.24,2.32 0.32,5.12 0.32,22.16 1.76,33.76 5.04,41.76 3.2,7.68 7.52,11.6 12.88,11.6 6.8,0 11.44,-6.48 15.6,-22.08 -3.92,-2.88 -5.2,-4.08 -8,-7.28 -0.88,5.36 -2.32,10.16 -4.24,14.48 -0.96,2.24 -2.08,3.44 -3.28,3.44 -2.56,0 -5.12,-5.12 -6.48,-13.44 -0.88,-4.88 -1.52,-14.48 -1.52,-21.44 0,-5.28 0.24,-9.2 0.64,-12.16 l -10.96,0 z m 40.4,7.6 c 4.8,5.92 8.64,12.4 11.36,19.68 2.8,7.28 4.64,15.6 5.12,23.12 l 9.92,-3.76 c -2.32,-17.6 -7.92,-30.96 -18,-43.04 l -8.4,4 z" />
      <path
         id="path5857"
         style="letter-spacing:14.80999756px;fill:#ffffff;fill-opacity:1;stroke:none;stroke-opacity:1"
         d="m 119.56627,230.23942 c 4.4,0 6.8,0.16 10,0.56 l 0,-10.16 c -2.72,0.4 -5.52,0.56 -10.08,0.56 l -21.199998,0 c 0.08,-2.96 0.16,-4.8 0.16,-8.08 0.08,-5.36 0.16,-6.56 0.56,-9.36 l -10.56,0 c 0.32,2.24 0.56,4.64 0.56,8 0,4.16 -0.08,5.44 -0.24,9.44 l -19.6,0 c -4.72,0 -7.6,-0.16 -10.08,-0.56 l 0,10.16 c 2.64,-0.4 4.96,-0.56 10,-0.56 l 18.88,0 c -1.92,13.6 -7.28,22.56 -18,30.16 -4,2.8 -7.2,4.48 -12.96,6.8 2.56,2.88 4.24,5.36 5.6,8.4 7.92,-3.44 13.68,-7.2 19.12,-12.56 6.4,-6.32 10.64,-13.2 13.04,-21.44 2.96,7.44 6.879998,13.84 12.079998,19.36 5.68,6.16 11.2,10.24 19.76,14.64 2,-4.32 3.12,-6 5.84,-9.2 -9.52,-3.92 -16.16,-8.48 -22.08,-15.2 -5.28,-6 -9.52,-13.76 -11.519998,-20.96 l 20.719998,0 z" />
      <path
         id="path5859"
         style="letter-spacing:14.80999756px;fill:#ffffff;fill-opacity:1;stroke:none;stroke-opacity:1"
         d="m 185.01627,254.15942 0,11.84 c 0,1.6 -0.56,1.84 -4.08,1.84 -2.48,0 -6.08,-0.24 -9.92,-0.8 1.36,2.88 1.76,4.24 2.64,8.48 4.16,0.24 6.8,0.32 7.84,0.32 7.2,0 9.92,-0.64 11.28,-2.64 0.8,-1.12 1.04,-2.24 1.04,-5.04 l 0,-14 20.8,0 c 4.16,0 7.6,0.16 9.92,0.48 l 0,-8.88 c -2.4,0.4 -5.92,0.56 -9.84,0.56 l -20.88,0 0,-0.08 c 6.24,-3.84 10.32,-6.8 16,-11.68 1.52,-1.28 1.52,-1.28 2.88,-2.4 l -4.4,-4.88 c -1.44,0.24 -2.96,0.32 -6.08,0.32 l -26.48,0 c -3.44,0 -5.68,-0.08 -8.08,-0.4 l 0,8 c 2.56,-0.24 4.72,-0.32 8,-0.32 l 22,0 c -3.36,2.96 -6,4.72 -9.44,6.48 l -3.44,0 c 0.16,1.36 0.24,2.8 0.24,4.4 l 0,0.56 -21.76,0 c -3.76,0 -6.96,-0.16 -9.68,-0.56 l 0,8.88 c 2.48,-0.32 5.6,-0.48 9.76,-0.48 l 21.68,0 z m -21.36,-39.52 c -5.36,0 -5.84,0 -9.44,-0.32 0.24,2.08 0.32,3.76 0.32,6.64 l 0,7.36 c 0,2.48 -0.08,4.32 -0.4,6.16 l 8.72,0 0,-12.4 52.16,0 0,12.4 8.72,0 c -0.24,-1.92 -0.4,-3.92 -0.4,-6.08 l 0,-7.44 c 0,-3.04 0.08,-4.64 0.32,-6.64 -2.88,0.24 -4.4,0.32 -9.84,0.32 l -3.6,0 c 1.84,-2.48 4.16,-6.16 6,-9.6 l -8.64,-2.4 c -1.36,3.76 -4.16,8.8 -6.56,12 l -6.8,0 c -1.76,-5.12 -2.24,-6.24 -5.52,-12.4 l -8.32,2.32 c 2.24,3.52 3.52,6.32 4.88,10.08 l -8.48,0 c -2.64,-5.12 -4.48,-8 -7.28,-11.44 l -8.08,2.4 c 3.12,3.92 4.16,5.52 6,9.04 l -3.76,0 z" />
      <path
         id="path5861"
         style="letter-spacing:14.80999756px;fill:#ffffff;fill-opacity:1;stroke:none;stroke-opacity:1"
         d="m 253.66627,252.71942 c 0.64,-0.96 0.8,-1.2 1.68,-2.16 4.8,-5.2 9.2,-10.56 15.76,-19.36 2.72,-3.6 3.52,-4.32 4.8,-4.32 1.52,0 2,0.4 6.96,6.08 8.56,9.76 8.72,10 14.8,16.24 5.84,5.84 12.16,11.84 16.32,15.52 1.2,1.04 1.52,1.36 2.32,2.32 l 4.88,-11.36 c -2.64,-1.52 -4.64,-3.12 -8.72,-6.72 -8.88,-8 -16.64,-15.92 -23.92,-24.48 -2.48,-2.96 -4.24,-4.8 -5.36,-5.76 -2.4,-2 -4.8,-3.04 -7.2,-3.04 -2,0 -4.24,0.8 -6.4,2.4 -1.52,1.04 -2.88,2.48 -4.96,5.04 -10.56,13.28 -14,17.2 -17.44,19.6 l 6.48,10 z" />
      <path
         id="path5863"
         style="fill:#ffffff;fill-opacity:1;stroke:none;stroke-opacity:1"
         d="m 355.51627,248.79942 c -7.44,0 -13.52,6.08 -13.52,13.52 0,7.52 6.08,13.6 13.52,13.6 7.44,0 13.52,-6.08 13.52,-13.6 0,-7.44 -6,-13.52 -13.52,-13.52 z m 0,6.24 c 4,0 7.28,3.28 7.28,7.28 0,4.08 -3.28,7.36 -7.28,7.36 -4,0 -7.28,-3.28 -7.28,-7.36 0,-4 3.28,-7.28 7.28,-7.28 z" />
    </g>
  </g>
</svg>
