<svg id="レイヤー_1" data-name="レイヤー 1" xmlns="http://www.w3.org/2000/svg" viewBox="0 0 976.61 90.3"><defs><style>.cls-1{fill:#848484;}</style></defs><title>credit</title><path class="cls-1" d="M49,35.88V37H43.62V54.21H42.36V35.88Z"/><path class="cls-1" d="M55.47,45.77c-1.87,0-2.52,0-2.65,0s-.23,0-.23-.25V44.28c0-.23,0-.26.23-.26s.78,0,2.65,0h2.64c.23-.38.46-.78.67-1.2H58c-2.06,0-2.78,0-2.9,0s-.23,0-.23-.21V41.42c0-.21,0-.23.23-.23s.84,0,2.9,0h1.47l.37-1.15H56.79c-2,0-2.69,0-2.82,0s-.23,0-.23-.23V38.57c0-.21,0-.23.23-.23s.8,0,2.82,0h3.46a8.68,8.68,0,0,0,.21-2.17c.74.07,1.49.15,2.06.24.27.06.42.12.42.29a.59.59,0,0,1-.17.42,3.52,3.52,0,0,0-.33,1.22h4.45c2,0,2.71,0,2.83,0s.23,0,.23.23v1.32c0,.21,0,.23-.23.23s-.8,0-2.83,0H62c-.11.4-.21.77-.34,1.15h4.09c2.06,0,2.78,0,2.9,0s.23,0,.23.23V42.7c0,.19,0,.21-.23.21s-.84,0-2.9,0h-.92a11.7,11.7,0,0,0,.69,1.2h2.78c1.86,0,2.49,0,2.62,0s.25,0,.25.26v1.28c0,.23,0,.25-.25.25s-.76,0-2.62,0H66.85a13.5,13.5,0,0,0,4.89,3.36,6.66,6.66,0,0,0-.95,1.47c-.17.33-.23.48-.38.48a1,1,0,0,1-.46-.21,17.63,17.63,0,0,1-2.87-2.12v2.79c0,3.05,0,3.61,0,3.74s0,.21-.23.21H65.23c-.21,0-.23,0-.23-.21v-.69H58.66v.84c0,.21,0,.23-.26.23H56.77c-.21,0-.23,0-.23-.23s0-.7,0-3.76V48.85a20.86,20.86,0,0,1-2.73,2,1.09,1.09,0,0,1-.46.23c-.13,0-.21-.14-.4-.48a4.68,4.68,0,0,0-1-1.3,15.09,15.09,0,0,0,4.81-3.57ZM65.38,47a12.72,12.72,0,0,1-.95-1.24H59.37c-.29.42-.63.84-1,1.24Zm-6.72,3H65V48.69H58.66Zm6.34,3V51.54H58.66v1.39Zm-1.6-8.86c-.21-.38-.4-.78-.59-1.2H61c-.19.42-.4.82-.61,1.2Z"/><path class="cls-1" d="M78,55.24c-.21,0-.23,0-.23-.23s0-1.39,0-7.48V43.48c0-4.07,0-5.35,0-5.48s0-.25.23-.25.86,0,2.89,0h7.21c2,0,2.77,0,2.89,0s.23,0,.23.25,0,1.41,0,4.85v4.66c0,6,0,7.26,0,7.39s0,.23-.23.23H89.08c-.21,0-.23,0-.23-.23v-1H80.06V55c0,.21,0,.23-.24.23Zm2.1-10.58h8.79V39.87H80.06Zm8.79,7.13V46.71H80.06v5.08Z"/><path class="cls-1" d="M100.72,44c-1.89,0-2.54,0-2.67,0s-.23,0-.23-.26V42.07c0-.21,0-.23.23-.23s.78,0,2.67,0h4.81c.06-.86.08-1.8.1-2.83a17.37,17.37,0,0,0-.1-2.44c.65,0,1.72.07,2.41.17.21,0,.38.15.38.3a.85.85,0,0,1-.13.44A3.78,3.78,0,0,0,108,39c0,1-.05,2-.13,2.89h5.42c1.89,0,2.54,0,2.66,0s.23,0,.23.23v1.72c0,.23,0,.26-.23.26s-.77,0-2.66,0h-5a14,14,0,0,0,8.4,9.16,7,7,0,0,0-1.22,1.57c-.19.36-.27.53-.44.53a1.42,1.42,0,0,1-.48-.21,16.11,16.11,0,0,1-7.48-8.48,11.86,11.86,0,0,1-.8,2,13.77,13.77,0,0,1-6.72,6.55,1.5,1.5,0,0,1-.5.17c-.17,0-.25-.13-.48-.48a6.6,6.6,0,0,0-1.2-1.33,12.12,12.12,0,0,0,6.8-5.77A12.53,12.53,0,0,0,105.3,44Z"/><path class="cls-1" d="M123.11,50c-1.87,0-2.5,0-2.63,0s-.23,0-.23-.23V48.2c0-.21,0-.23.23-.23s.76.05,2.63.05h5.52a13.79,13.79,0,0,0-.13-1.79l1.22.13a13.85,13.85,0,0,0,1.91-1.52H127.1c-1.94,0-2.61,0-2.71,0s-.23,0-.23-.21V43.21c0-.21,0-.23.23-.23s.77,0,2.71,0h5.69a1.35,1.35,0,0,0,.5,0,.58.58,0,0,1,.27-.09c.17,0,.38.17.9.67s.59.72.59.91a.33.33,0,0,1-.25.33,5.62,5.62,0,0,0-1,.7,25.53,25.53,0,0,1-2.94,2.18V48h5.25c1.87,0,2.5-.05,2.63-.05s.23,0,.23.23v1.62c0,.21,0,.23-.23.23s-.76,0-2.63,0h-5.25v1.36c0,.51.05,1.28.05,1.83,0,.9-.17,1.37-.68,1.72s-1.19.46-3.21.46c-.65,0-.65,0-.82-.61a6.21,6.21,0,0,0-.63-1.53,19.1,19.1,0,0,0,2.25.13c.59,0,.82-.15.82-.74V50Zm1.3-13.44c.27-.1.33-.06.46.11a16.59,16.59,0,0,1,1.41,2.18c.1.21.1.23-.19.34l-1.39.5h4.37a16.55,16.55,0,0,0-1.2-2.62c-.12-.21-.06-.23.19-.32l1.39-.42c.25-.08.31,0,.42.13A16.62,16.62,0,0,1,131,38.9c.06.19.06.21-.23.32l-1.36.48h3.23a16.72,16.72,0,0,0,1-2.12,7,7,0,0,0,.31-1.11,10.2,10.2,0,0,1,2.08.63c.19.08.3.19.3.31a.42.42,0,0,1-.21.32,1.4,1.4,0,0,0-.4.48c-.3.55-.55,1-.86,1.49h.54c2,0,2.65,0,2.77,0s.26,0,.26.23,0,.52,0,1.13v1c0,1.89,0,2.22,0,2.35s0,.25-.26.25h-1.66c-.21,0-.23,0-.23-.25V41.57H122.9v2.77c0,.21,0,.23-.23.23H121c-.23,0-.26,0-.26-.23s0-.48,0-2.37v-.78c0-.78,0-1.15,0-1.3s0-.23.26-.23.82,0,2.77,0h.56A11.93,11.93,0,0,0,123,37.35c-.12-.19-.1-.23.15-.32Z"/><path class="cls-1" d="M142.51,56V54.84h5.33V37.66h1.26V56Z"/><path class="cls-1" d="M170.42,38.27c.23.13.31.25.31.42a1.06,1.06,0,0,1-.14.46,4.39,4.39,0,0,0-.38,1.16A42,42,0,0,0,169.16,48c0,.84,0,1.81.06,2.69.42-1,.86-1.87,1.3-2.92a5.76,5.76,0,0,0,.74,1.32.48.48,0,0,1,.12.3.61.61,0,0,1-.12.33,12.18,12.18,0,0,0-1.07,3.19,3.81,3.81,0,0,0,0,1.12c0,.14-.07.21-.25.27a9.07,9.07,0,0,1-1.58.36c-.23.06-.31,0-.42-.26A19.46,19.46,0,0,1,167,48a46,46,0,0,1,.86-8,11,11,0,0,0,.15-2.47A16.42,16.42,0,0,1,170.42,38.27Zm7.22,5.61c-1.43,0-2.9.08-4.32,0-.28,0-.36-.07-.38-.28a12,12,0,0,1-.15-1.91,30.65,30.65,0,0,0,4.79.07c0-.76,0-1.43,0-2.21a8.65,8.65,0,0,0-.28-2.06,12.16,12.16,0,0,1,2.55.4c.23.07.37.17.37.36a.92.92,0,0,1-.12.36,2.18,2.18,0,0,0-.17.73c0,.72,0,1.26,0,2.23,1-.09,2.08-.23,3-.38.25-.06.29,0,.33.25a7.87,7.87,0,0,1,.13,1.49c0,.19-.08.3-.23.32a24.56,24.56,0,0,1-3.23.44c0,2.35,0,3.82.14,5.63a13.79,13.79,0,0,1,3.49,2c.19.13.21.19.1.42a11.91,11.91,0,0,1-1,1.62.27.27,0,0,1-.19.12.3.3,0,0,1-.19-.1A11.94,11.94,0,0,0,180,51.69c-.17,1.76-1.36,2.73-3.84,2.73s-3.76-1.14-3.76-2.94,1.56-3,3.68-3a8.47,8.47,0,0,1,1.68.17C177.68,47.07,177.66,45.54,177.64,43.88Zm-1.7,6.53c-1,0-1.57.36-1.57,1s.46,1,1.7,1c1.05,0,1.72-.61,1.72-1.37a3.1,3.1,0,0,0,0-.42A5.84,5.84,0,0,0,175.94,50.41Z"/><path class="cls-1" d="M188.92,50.26a.44.44,0,0,1,.32-.17.42.42,0,0,1,.27.13,15.55,15.55,0,0,1,4.18,3.84c.12.17.14.23.14.32s0,.19-.21.33l-1.28,1.09c-.14.13-.23.19-.29.19s-.19,0-.3-.21a15.91,15.91,0,0,0-4-4c-.13-.08-.19-.14-.19-.21s0-.12.14-.25Z"/><path class="cls-1" d="M212.44,47.3c0-.76,0-1.66,0-2.54-.4.57-.82,1.09-1.26,1.62-.17.19-.29.29-.38.29s-.16-.1-.23-.36a6.28,6.28,0,0,0-.71-1.89,19.39,19.39,0,0,0,3.86-6.65,7,7,0,0,0,.36-1.49,19.83,19.83,0,0,1,2,.63c.23.08.35.17.35.31s-.06.23-.25.38-.23.29-.44.84a31.28,31.28,0,0,1-1.26,2.88V52.13c0,2.06,0,3.09,0,3.19s0,.23-.23.23h-1.76c-.19,0-.21,0-.21-.23s0-1.13,0-3.19Zm13.5-4.81a1.18,1.18,0,0,0,.59-.08.68.68,0,0,1,.33-.09c.13,0,.3,0,.82.55s.65.69.65.86-.06.23-.21.38a1.92,1.92,0,0,0-.39.78,20.42,20.42,0,0,1-2.5,5.54,17.64,17.64,0,0,0,4.6,2.81,5.25,5.25,0,0,0-.93,1.53c-.15.34-.21.49-.36.49a1.75,1.75,0,0,1-.5-.21,20.11,20.11,0,0,1-4.16-2.92,15.47,15.47,0,0,1-3.88,3,1.35,1.35,0,0,1-.5.21c-.15,0-.24-.14-.42-.48a5.43,5.43,0,0,0-1-1.32,14.89,14.89,0,0,0,4.39-3,13.49,13.49,0,0,1-2.75-6.16h-.19a26.41,26.41,0,0,1-.47,5.06A14.12,14.12,0,0,1,216.7,55c-.19.23-.29.36-.38.36s-.21-.13-.39-.38a6.18,6.18,0,0,0-1.12-1.3A10.32,10.32,0,0,0,217,48.81a32.78,32.78,0,0,0,.37-6.36c0-3.21,0-4.62,0-4.74s0-.24.25-.24.87.05,2.86.05h5.92c2,0,2.69-.05,2.81-.05s.21,0,.21.24v1.63c0,.21,0,.23-.21.23s-.81,0-2.81,0h-6.82v3Zm-4.35,1.91a11.8,11.8,0,0,0,2.19,4.54,14.5,14.5,0,0,0,1.93-4.54Z"/><path class="cls-1" d="M237,38.25a8.71,8.71,0,0,0-.13-1.87c.74,0,1.34,0,2,.11.19,0,.27.08.27.21a1.33,1.33,0,0,1-.08.33,3.65,3.65,0,0,0-.11,1.2v.92h.27c1.68,0,2.21,0,2.34,0s.25,0,.25.23v1.49c0,.21,0,.23-.25.23s-.66,0-2.34,0h0a11.32,11.32,0,0,0,2.9,3,4.77,4.77,0,0,0-.73,1.24c-.13.29-.21.44-.34.44s-.23-.11-.42-.32a10.27,10.27,0,0,1-1.72-2.33c0,2.65.1,4.56.1,5,0,.23,0,.25-.23.25h-1.59c-.21,0-.24,0-.24-.25,0-.38.07-2.08.09-4.54a11.36,11.36,0,0,1-2.52,3.21c-.19.17-.32.26-.42.26s-.25-.15-.42-.47a5.09,5.09,0,0,0-.9-1.24A12,12,0,0,0,236.61,41h-.69c-1.7,0-2.25,0-2.37,0s-.24,0-.24-.23V39.34c0-.21,0-.23.24-.23s.67,0,2.37,0h1Zm-3.61,15.22c-.28-.19-.26-.27-.13-.42A11.38,11.38,0,0,0,235,49.34c.07-.23.11-.21.38-.11l1.32.51c.28.1.3.14.23.37A15.4,15.4,0,0,1,235,54.29c-.07.11-.11.15-.17.15a.36.36,0,0,1-.25-.11Zm7.11-1.24c0,.42.09.7.3.82a4.55,4.55,0,0,0,1.95.23,5.23,5.23,0,0,0,2.5-.31,2.63,2.63,0,0,0,.52-1.89,5.54,5.54,0,0,0,1.58.61c.54.1.52.17.44.73-.19,1.37-.53,1.89-1.16,2.25s-1.86.52-4.07.52c-1.93,0-3-.12-3.51-.46s-.71-.71-.71-1.78V50.6a11.09,11.09,0,0,0-.13-1.75c.7,0,1.54,0,2.15.11.27,0,.37.13.37.23a.76.76,0,0,1-.08.34,2.41,2.41,0,0,0-.15.94Zm7.69-15c1.64,0,2.18-.05,2.33-.05s.23,0,.23.23,0,.86,0,2.46v5.54c0,1.6,0,2.33,0,2.46s0,.25-.23.25-.69,0-2.33,0h-3c-1,0-1.6,0-1.94,0a13.64,13.64,0,0,1,2,2.37c.11.17.11.23-.12.38l-1.22.76a.6.6,0,0,1-.28.12c-.06,0-.1,0-.16-.14a11.81,11.81,0,0,0-2.1-2.73c-.13-.15-.11-.23.1-.36l1.11-.65c0-.17,0-.9,0-2.44V39.91c0-1.6,0-2.31,0-2.46s0-.23.26-.23.65.05,2.31.05Zm-3.53,3.14h4V39h-4Zm4,3V42h-4v1.4Zm0,1.56h-4V46.4h4Zm.55,4c.25-.1.31-.08.44.08a16.54,16.54,0,0,1,2.29,3.78c.06.17,0,.23-.19.38l-1.41.82a.63.63,0,0,1-.27.13c-.06,0-.11-.07-.15-.19A13.14,13.14,0,0,0,247.76,50c-.15-.19-.13-.23.15-.38Z"/><path class="cls-1" d="M261.12,39.7c1.49,0,2,0,2.12,0s.23,0,.23.23,0,.84,0,2.9A15.33,15.33,0,0,0,266.11,38a9.92,9.92,0,0,0,.4-1.78,13.87,13.87,0,0,1,2.08.5c.28.09.44.19.44.34s0,.23-.21.42a2.79,2.79,0,0,0-.56,1.07c-.15.4-.32.77-.49,1.15h3.93c1.51,0,2,0,2.12,0s.25,0,.25.25c0,.59,0,1.16,0,1.74a69.28,69.28,0,0,1-.61,10.65c-.33,2.14-1.2,3.15-3.17,3.19-.46,0-1.05,0-1.59,0s-.61,0-.76-.71a7.83,7.83,0,0,0-.61-1.62,14.47,14.47,0,0,0,2.69.21c.75,0,1.11-.69,1.32-1.81a62.33,62.33,0,0,0,.53-9.89h-5A18.54,18.54,0,0,1,265,44.32c-.21.25-.33.38-.44.38s-.21-.13-.44-.38a7.38,7.38,0,0,0-.73-.65V48c0,4.89,0,5.81,0,5.94s0,.23-.23.23h-1.62c-.21,0-.23,0-.23-.23V53h-3v1.59c0,.23,0,.26-.25.26h-1.6c-.21,0-.23,0-.23-.26s0-1.11,0-6.21V44.7c0-3.66,0-4.66,0-4.81s0-.23.23-.23.57,0,1.79,0a22.23,22.23,0,0,0,.65-2.2,9.72,9.72,0,0,0,.16-1.2c.76.08,1.54.21,2.17.33.19,0,.29.15.29.28s0,.21-.19.33a1.25,1.25,0,0,0-.29.47c-.23.63-.46,1.34-.72,2Zm-2.73,1.87v3.71h3V41.57Zm3,9.49V47.18h-3v3.88Zm5.46-6.57a.46.46,0,0,1,.23-.11s.09,0,.17.13a17.47,17.47,0,0,1,2.58,3.88c.11.21.09.28-.17.44l-1.3.91a.46.46,0,0,1-.21.12c-.06,0-.1-.06-.15-.19a18.65,18.65,0,0,0-2.45-4.05c-.13-.17-.11-.21.14-.38Z"/><path class="cls-1" d="M288.65,40c.19-.06.27-.06.31.17a10.79,10.79,0,0,1,.19,1.7c0,.19-.08.23-.25.25-1.13.24-2.16.38-3.46.57a58.65,58.65,0,0,1-4.1,9c-.08.15-.15.21-.23.21a.51.51,0,0,1-.25-.11,9.72,9.72,0,0,1-1.45-1.07c-.11-.08-.15-.14-.15-.23a.39.39,0,0,1,.11-.25A42.21,42.21,0,0,0,283,42.91c-.8,0-1.45,0-2.1,0-.46,0-.63,0-1.15,0-.21,0-.26-.06-.3-.33a11.3,11.3,0,0,1-.21-1.79c.86.07,1.35.09,1.95.09a23.5,23.5,0,0,0,2.42-.11c.25-.88.4-1.59.55-2.35a8.5,8.5,0,0,0,.12-1.7,20.11,20.11,0,0,1,2.46.44c.21,0,.33.17.33.32a.49.49,0,0,1-.19.39,2.37,2.37,0,0,0-.33.78c-.15.51-.32,1.16-.51,1.79A23.84,23.84,0,0,0,288.65,40Zm.59,5.63a8.62,8.62,0,0,0-.17-1.49,11.79,11.79,0,0,1,2.29.4.32.32,0,0,1,.29.33,2.26,2.26,0,0,1-.13.45,2.27,2.27,0,0,0-.08.86,27.08,27.08,0,0,0,.23,3.57,16.64,16.64,0,0,1,3.78,1.95c.21.15.23.23.13.44a12.88,12.88,0,0,1-1,1.7c-.06.1-.12.15-.19.15s-.12,0-.21-.13a15.09,15.09,0,0,0-2.56-1.76c0,2.1-1.51,3.06-3.9,3.06s-3.87-1.17-3.87-3,1.51-3.06,3.89-3.06a11.22,11.22,0,0,1,1.65.12C289.3,47.89,289.26,46.61,289.24,45.62Zm-1.49,5.29c-1.05,0-1.87.42-1.87,1.22s.58,1,1.78,1,1.83-.61,1.83-1.49a2.49,2.49,0,0,0,0-.42A5.32,5.32,0,0,0,287.75,50.91Zm3.9-10.1c.13-.21.23-.23.44-.14a16.13,16.13,0,0,1,4.12,2c.12.08.19.15.19.23a.54.54,0,0,1-.09.25,13.46,13.46,0,0,1-.88,1.56.24.24,0,0,1-.19.14.32.32,0,0,1-.19-.08,18.42,18.42,0,0,0-4.34-2.29C291.06,41.82,291.38,41.19,291.65,40.81Z"/><path class="cls-1" d="M304.67,38.25a9.54,9.54,0,0,0-.12-1.87c.73,0,1.34,0,2,.11.19,0,.28.08.28.21a1.31,1.31,0,0,1-.09.33,4.22,4.22,0,0,0-.1,1.2v.92h.27c1.68,0,2.2,0,2.33,0s.25,0,.25.23v1.49c0,.21,0,.23-.25.23s-.65,0-2.33,0h0a11.17,11.17,0,0,0,2.9,3,4.8,4.8,0,0,0-.74,1.24c-.13.29-.21.44-.34.44s-.23-.11-.42-.32a10.58,10.58,0,0,1-1.72-2.33c.05,2.65.11,4.56.11,5,0,.23,0,.25-.23.25h-1.6c-.21,0-.23,0-.23-.25,0-.38.06-2.08.08-4.54a11,11,0,0,1-2.52,3.21c-.18.17-.31.26-.42.26s-.25-.15-.42-.47a4.84,4.84,0,0,0-.9-1.24A11.89,11.89,0,0,0,304.34,41h-.7c-1.7,0-2.24,0-2.37,0s-.23,0-.23-.23V39.34c0-.21,0-.23.23-.23s.67,0,2.37,0h1Zm-3.61,15.22c-.27-.19-.25-.27-.13-.42a11.39,11.39,0,0,0,1.77-3.71c.06-.23.1-.21.38-.11l1.32.51c.27.1.29.14.23.37a15.11,15.11,0,0,1-1.89,4.18c-.06.11-.1.15-.17.15a.39.39,0,0,1-.25-.11Zm7.12-1.24c0,.42.08.7.29.82a4.6,4.6,0,0,0,1.95.23,5.21,5.21,0,0,0,2.5-.31c.32-.23.51-.92.53-1.89a5.59,5.59,0,0,0,1.57.61c.55.1.53.17.44.73-.18,1.37-.52,1.89-1.15,2.25-.78.44-1.87.52-4.07.52-1.94,0-3-.12-3.51-.46S306,54,306,53V50.6a12.42,12.42,0,0,0-.13-1.75c.69,0,1.53,0,2.14.11.27,0,.38.13.38.23a.76.76,0,0,1-.08.34,2.23,2.23,0,0,0-.15.94Zm7.68-15c1.64,0,2.19-.05,2.33-.05s.23,0,.23.23,0,.86,0,2.46v5.54c0,1.6,0,2.33,0,2.46s0,.25-.23.25-.69,0-2.33,0h-3c-1,0-1.59,0-1.93,0a13.64,13.64,0,0,1,2,2.37c.1.17.1.23-.13.38l-1.22.76a.58.58,0,0,1-.27.12c-.06,0-.11,0-.17-.14a11.29,11.29,0,0,0-2.1-2.73c-.12-.15-.1-.23.11-.36l1.11-.65c0-.17,0-.9,0-2.44V39.91c0-1.6,0-2.31,0-2.46s0-.23.25-.23.65.05,2.31.05Zm-3.52,3.14h4.05V39h-4.05Zm4.05,3V42h-4.05v1.4Zm0,1.56h-4.05V46.4h4.05Zm.54,4c.26-.1.32-.08.45.08a16.51,16.51,0,0,1,2.28,3.78c.07.17,0,.23-.19.38l-1.4.82a.68.68,0,0,1-.27.13c-.07,0-.11-.07-.15-.19A13.36,13.36,0,0,0,315.49,50c-.15-.19-.13-.23.14-.38Z"/><path class="cls-1" d="M325.21,47.57c0-.86,0-2,0-3-.4.57-.84,1.13-1.28,1.68-.15.19-.25.27-.36.27s-.16-.14-.25-.44a8.77,8.77,0,0,0-.67-1.64,18.79,18.79,0,0,0,3.76-6.67,6.93,6.93,0,0,0,.33-1.47,14.27,14.27,0,0,1,2,.61c.23.08.35.14.35.31s-.08.23-.21.36a2.67,2.67,0,0,0-.5,1,26.92,26.92,0,0,1-1.13,2.68V52.13c0,2.06,0,3.09,0,3.19s0,.23-.23.23H325.4c-.21,0-.23,0-.23-.23s0-1.13,0-3.19ZM334.49,46a8.56,8.56,0,0,1,2.39,5.92c0,2.58-1.13,3.49-2.49,3.49-.32,0-.68,0-1.08,0-.63,0-.63-.06-.73-.61a5.48,5.48,0,0,0-.48-1.4,11.28,11.28,0,0,0,1.68.15c.81,0,1.17-.28,1.17-2a2.89,2.89,0,0,0,0-.4,19.59,19.59,0,0,1-5.88,3.24,1.61,1.61,0,0,1-.4.1c-.14,0-.21-.08-.31-.35a3.91,3.91,0,0,0-.82-1.24,21.07,21.07,0,0,0,7.07-3.49,6.55,6.55,0,0,0-.27-.69,21.81,21.81,0,0,1-5.18,2.71,1.45,1.45,0,0,1-.42.12c-.15,0-.21-.1-.32-.35a3.43,3.43,0,0,0-.75-1.14,19.92,19.92,0,0,0,5.85-2.64,3.1,3.1,0,0,0-.44-.53,19.13,19.13,0,0,1-3.73,1.74,1.29,1.29,0,0,1-.47.13c-.14,0-.21-.1-.31-.36a4.4,4.4,0,0,0-.76-1.19,17.89,17.89,0,0,0,5-2h-.42c-2,0-2.73.05-2.86.05s-.23,0-.23-.23,0-.53,0-1.43v-.86L329,43c-.25.18-.4.29-.5.29s-.19-.13-.32-.36a5.09,5.09,0,0,0-.82-1.13,12.3,12.3,0,0,0,4.16-4.16,6.08,6.08,0,0,0,.59-1.34c.78.12,1.32.23,1.85.35.23.07.37.15.37.3a.43.43,0,0,1-.25.38,1.67,1.67,0,0,0-.5.61h3a1.47,1.47,0,0,0,.53-.07.81.81,0,0,1,.27-.08c.17,0,.32.08.82.57s.52.52.52.69-.1.25-.29.36a1.8,1.8,0,0,0-.5.5,11.53,11.53,0,0,1-.84,1H338c2,0,2.75-.05,2.9-.05s.23,0,.23.23,0,.49,0,1.39v1.26c0,.9,0,1.24,0,1.37s0,.23-.23.23-.91-.05-2.9-.05h-.34a13.79,13.79,0,0,0,.84,2.52,13.32,13.32,0,0,0,1-1.09,6.66,6.66,0,0,0,.61-.92,17.72,17.72,0,0,1,1.51.94c.19.15.28.23.28.36s-.13.25-.28.31a2.84,2.84,0,0,0-.71.55,20.61,20.61,0,0,1-1.58,1.45,11.23,11.23,0,0,0,3.34,3.15,5.62,5.62,0,0,0-.92,1.34c-.17.32-.27.46-.42.46s-.27-.1-.5-.31a15.67,15.67,0,0,1-5-8.76h-.42Zm-.32-2.14V42.35h-3v1.51Zm.72-3A8.11,8.11,0,0,0,336,39.53h-3.42c-.36.44-.74.9-1.16,1.35Zm4.32,1.47h-3.12v1.51h3.12Z"/><path class="cls-1" d="M357.61,50.89c0,.23-.12.34-.4.38a11.82,11.82,0,0,1-1.49.1c-.19,0-.27-.12-.27-.33,0-.76,0-1.81,0-2.56-1.87,1-2.54,1.78-2.54,2.79s.71,1.45,2.92,1.45a36.1,36.1,0,0,0,5.23-.42c.18,0,.27,0,.29.23a9.84,9.84,0,0,1,.19,1.72c0,.25-.06.4-.23.4a37.56,37.56,0,0,1-5.21.27c-3.44,0-5.27-1-5.27-3.46,0-2,1.26-3.49,4.43-5.12-.06-1.08-.31-1.5-1.26-1.45a5.06,5.06,0,0,0-2.9,1.51,29.72,29.72,0,0,0-2.1,2.29c-.1.12-.16.19-.25.19s-.14-.07-.23-.15a11.35,11.35,0,0,1-1.2-1.39.32.32,0,0,1-.08-.19c0-.08,0-.14.15-.23a21.64,21.64,0,0,0,4.39-5.2c-1,0-2.13.06-3.36.06-.19,0-.26-.11-.3-.34s-.14-1.11-.21-1.74c1.6.08,3.24.06,4.83,0a16.33,16.33,0,0,0,.63-1.81,4.77,4.77,0,0,0,.15-1.28,13.4,13.4,0,0,1,2.39.59.37.37,0,0,1,.25.36.41.41,0,0,1-.14.31,1.59,1.59,0,0,0-.36.51c-.13.29-.23.56-.48,1.13a35.43,35.43,0,0,0,3.82-.65c.23,0,.29,0,.33.21a6.69,6.69,0,0,1,.21,1.51c0,.21-.06.29-.35.34-1.58.23-3.38.46-4.92.63a22.16,22.16,0,0,1-1.57,2.33l0,0a4.17,4.17,0,0,1,2.1-.65,2.32,2.32,0,0,1,2.56,2.27c.82-.38,2-.93,3.09-1.47a6.14,6.14,0,0,0,1.59-1.14,12.52,12.52,0,0,1,1.47,1.85.82.82,0,0,1,.17.46c0,.17-.1.25-.31.3a6.29,6.29,0,0,0-1.28.31c-1.37.48-2.73,1-4.52,1.68Z"/><path class="cls-1" d="M373,45.94a26.39,26.39,0,0,1-.3,3.36,12.49,12.49,0,0,1-2.41,5.62c-.19.23-.3.36-.4.36s-.23-.13-.42-.36a4.88,4.88,0,0,0-1.32-1.17,9.09,9.09,0,0,0,2.52-5.21c.1-.71.16-1.6.21-2.6l-2.23,0c-.19,0-.21,0-.21-.25V44.09c0-.21,0-.23.21-.23s.71,0,2.27,0c0-.78,0-1.6,0-2.5V39.49l-1.7,0c-.21,0-.23,0-.23-.23V37.66c0-.23,0-.25.23-.25s.75,0,2.64,0h4.6c1.89,0,2.54,0,2.65,0s.23,0,.23.25V39.3c0,.21,0,.23-.23.23l-1.66,0V43.9c1.34,0,1.87,0,2,0s.23,0,.23.23v1.64c0,.23,0,.25-.23.25l-2,0v6c0,1.95,0,3.17,0,3.3s0,.21-.25.21h-1.7c-.23,0-.25,0-.25-.21s0-1.35,0-3.3v-6Zm2.35-2V39.49h-2.29V43.9Zm9.8,4.72a9.87,9.87,0,0,0,.8-1.17,11.1,11.1,0,0,1,1.7,1.32c.15.15.19.21.19.36s-.12.19-.27.25-.4.36-.74.76a19.14,19.14,0,0,1-6.55,4.93,1.53,1.53,0,0,1-.5.19c-.17,0-.23-.15-.44-.51a5.62,5.62,0,0,0-1.12-1.34A15.48,15.48,0,0,0,385.18,48.62Zm1.07-10.81c.15.13.21.23.21.34s-.1.23-.25.29a2.24,2.24,0,0,0-.71.5,18.59,18.59,0,0,1-5,3.49,1.11,1.11,0,0,1-.48.19c-.17,0-.25-.17-.42-.55a5.17,5.17,0,0,0-.9-1.3,14.17,14.17,0,0,0,5-3.17,5.89,5.89,0,0,0,.75-1A8.3,8.3,0,0,1,386.25,37.81Zm.72,5.12c.19.19.23.25.23.36s-.13.21-.25.25a2.35,2.35,0,0,0-.7.63,18.42,18.42,0,0,1-5.48,4.2,1.06,1.06,0,0,1-.46.19c-.14,0-.25-.15-.44-.5a4.8,4.8,0,0,0-1-1.26,15.56,15.56,0,0,0,5.78-4,3.93,3.93,0,0,0,.69-1A10.35,10.35,0,0,1,387,42.93Z"/><path class="cls-1" d="M396.11,38.69c.35.19.48.32.48.51s0,.21-.32.63a4.91,4.91,0,0,0-.5,1.49,33.76,33.76,0,0,0-.88,6.78,21.36,21.36,0,0,0,.12,2.46c.45-1,.82-1.66,1.43-3.13a5.37,5.37,0,0,0,.74,1.32.83.83,0,0,1,.14.31.6.6,0,0,1-.1.34,21.13,21.13,0,0,0-1.2,3.17,2.53,2.53,0,0,0-.06.65c0,.25,0,.42,0,.59s-.08.23-.27.27a10.91,10.91,0,0,1-1.72.34c-.15,0-.23-.09-.28-.23a19.94,19.94,0,0,1-1-6.26,40.37,40.37,0,0,1,.71-6.89,17.16,17.16,0,0,0,.38-3.12A9.64,9.64,0,0,1,396.11,38.69Zm4.49,9.89c.17,0,.21.09.21.32.12,1.45,1.13,2,3.42,2a29.64,29.64,0,0,0,4-.27c.21,0,.25,0,.3.27a16.32,16.32,0,0,1,.12,1.81c0,.25,0,.27-.36.31a27.59,27.59,0,0,1-3.42.23c-3.11,0-4.55-.5-5.46-1.74a4.65,4.65,0,0,1-.73-2.73Zm-1.18-7.85c0-.25.09-.32.3-.36a33.71,33.71,0,0,1,4.55-.38c1.26,0,2.23,0,3.11.13.44,0,.48.06.48.27,0,.63,0,1.2,0,1.79,0,.19-.08.27-.27.25-1.26-.08-2.35-.13-3.42-.13a25.47,25.47,0,0,0-4.77.49C399.38,41.61,399.38,41.09,399.42,40.73Z"/><path class="cls-1" d="M423,38.42a6.43,6.43,0,0,0-.25-1.53,21.75,21.75,0,0,1,2.46.29c.36.06.59.21.59.4a.92.92,0,0,1-.19.48,2,2,0,0,0-.17.61c0,.27,0,.55,0,1.35,2.27-.09,4.43-.11,6.44-.11.26,0,.3,0,.32.32,0,.52,0,1.07,0,1.59,0,.23-.11.29-.36.27-2.18-.06-4.22-.06-6.4,0,0,1.28,0,2.63,0,3.91a6.49,6.49,0,0,1,.31,2.08A7.84,7.84,0,0,1,422,54.82a2,2,0,0,1-.82.4,1.18,1.18,0,0,1-.63-.32,4.74,4.74,0,0,0-1.6-.84,7,7,0,0,0,4.31-4.62,2.42,2.42,0,0,1-2,.84,2.9,2.9,0,0,1-2.92-3.21,3.06,3.06,0,0,1,3.18-3.15,2.61,2.61,0,0,1,1.59.42c0-.74,0-1.45,0-2.14-2.65.15-5.61.4-7.27.63-.46.06-.79.25-1,.25s-.3-.08-.36-.29a13.59,13.59,0,0,1-.52-2.12,13.76,13.76,0,0,0,2.56-.09c1.28-.1,4-.27,6.51-.42C423,39.51,423,39,423,38.42Zm-2.68,8.5a1.3,1.3,0,0,0,1.34,1.43,1.35,1.35,0,0,0,1.43-1.45,1.26,1.26,0,0,0-1.39-1.34A1.33,1.33,0,0,0,420.28,46.92Z"/><path class="cls-1" d="M444.34,45.12a6.26,6.26,0,0,1,3.34-.95,4.88,4.88,0,0,1,5.21,5c0,3.51-2.84,5.75-7.33,5.75-2.65,0-4.24-1.13-4.24-3.08a2.78,2.78,0,0,1,3-2.56,3.83,3.83,0,0,1,4,3.06,3.15,3.15,0,0,0,2.14-3.19,3.07,3.07,0,0,0-3.3-3.17,8.54,8.54,0,0,0-5.37,2.23c-.61.54-1.2,1.15-1.83,1.78-.15.15-.25.23-.36.23a.49.49,0,0,1-.31-.19A9.9,9.9,0,0,1,438,48.71c-.13-.17-.06-.32.1-.49a49.24,49.24,0,0,0,5-4.64c1.3-1.34,2.29-2.39,3.25-3.59-1.26.24-2.75.53-4.05.8a7.2,7.2,0,0,0-.88.25,1.31,1.31,0,0,1-.42.11.48.48,0,0,1-.46-.36,10.33,10.33,0,0,1-.74-2.27,9.88,9.88,0,0,0,2,0c1.28-.13,3.13-.4,4.76-.72a5.62,5.62,0,0,0,1.16-.31.93.93,0,0,1,.4-.17.72.72,0,0,1,.48.17,8,8,0,0,1,1.41,1.34.77.77,0,0,1,.23.51.56.56,0,0,1-.36.5,3.18,3.18,0,0,0-.92.67c-1.54,1.49-2.94,3-4.54,4.49Zm0,6c-.61,0-1,.36-1,.8,0,.65.57,1.09,1.83,1.09a4.88,4.88,0,0,0,1-.08C445.87,51.75,445.25,51.1,444.36,51.1Z"/><path class="cls-1" d="M464.48,41c-1.2,0-2.48.09-3.72.17-.25,0-.33-.12-.37-.31a18.53,18.53,0,0,1-.38-2.27c1.43.1,2.58.15,4.26.15h9a4.51,4.51,0,0,0,1.45-.13,1.49,1.49,0,0,1,.4-.15.73.73,0,0,1,.48.3,11.27,11.27,0,0,1,1.26,1.32.65.65,0,0,1,.17.38.56.56,0,0,1-.3.44,2.5,2.5,0,0,0-.56.61,17.82,17.82,0,0,1-3.7,4.05.59.59,0,0,1-.44.19.82.82,0,0,1-.5-.21,4.86,4.86,0,0,0-1.75-.86A14.82,14.82,0,0,0,473.55,41Zm1.18,8.19a9.68,9.68,0,0,0,1-4.95,8,8,0,0,0-.21-2,26,26,0,0,1,2.7.4c.28.07.36.21.36.4a.9.9,0,0,1-.1.38,1.84,1.84,0,0,0-.19.86A13,13,0,0,1,468,50.11a10.9,10.9,0,0,1-3.82,4.18,1,1,0,0,1-.59.21.58.58,0,0,1-.42-.19,6,6,0,0,0-1.91-1.07A9.29,9.29,0,0,0,465.66,49.23Z"/><path class="cls-1" d="M486.38,47.43a16.91,16.91,0,0,0-3.08.25.46.46,0,0,1-.48-.44,22.68,22.68,0,0,1-.32-2.54A27.11,27.11,0,0,0,487,45h6.76c1.59,0,3.21,0,4.83-.06.31,0,.37,0,.37.29a13,13,0,0,1,0,2c0,.26-.08.34-.37.32-1.58,0-3.13,0-4.69,0Z"/><path class="cls-1" d="M512.68,43.12A29.67,29.67,0,0,1,519.35,46c.23.12.34.27.23.54a11.15,11.15,0,0,1-.9,1.83c-.08.15-.17.23-.27.23a.31.31,0,0,1-.23-.1,23,23,0,0,0-5.52-2.69v4.64c0,1.36,0,2.6.08,4.11,0,.26-.08.32-.38.32a14.59,14.59,0,0,1-1.87,0c-.29,0-.4-.06-.4-.32.07-1.55.09-2.79.09-4.13V40.08A16.6,16.6,0,0,0,510,37a15,15,0,0,1,2.62.34c.3.06.4.19.4.35a1.06,1.06,0,0,1-.17.49,5.68,5.68,0,0,0-.14,2Z"/><path class="cls-1" d="M531.85,42c-1.36,0-2.56.06-3.46.1-.28,0-.36-.12-.4-.42s-.15-1.51-.19-2.12a35.27,35.27,0,0,0,4,.15h7.5a2,2,0,0,0,1.15-.21.72.72,0,0,1,.36-.13.5.5,0,0,1,.35.15,7.52,7.52,0,0,1,1.43,1.45.69.69,0,0,1,.17.42.58.58,0,0,1-.21.4,2.55,2.55,0,0,0-.48.82A24.76,24.76,0,0,1,538,49.4a23.48,23.48,0,0,1-6,5,1.08,1.08,0,0,1-.57.19.75.75,0,0,1-.52-.24,6.4,6.4,0,0,0-2-1.15A20.22,20.22,0,0,0,535.88,48a17.64,17.64,0,0,0,3.55-6Zm14.51-4a2.27,2.27,0,0,1-4.54,0,2.21,2.21,0,0,1,2.27-2.25A2.25,2.25,0,0,1,546.36,37.94Zm-3.51,0a1.24,1.24,0,1,0,1.24-1.24A1.21,1.21,0,0,0,542.85,37.94Z"/><path class="cls-1" d="M554.45,51.46V52.7c0,.35-.09.4-.47.42s-1.13,0-1.65,0c-.36,0-.47-.07-.45-.32,0-1.09.07-2.58.07-4.18V43.48c0-1.13,0-2.27,0-3.49,0-.21.08-.29.23-.29,1.11.06,2.35.06,3.75.06h5c1.37,0,3,0,4,0,.23,0,.29.11.27.42,0,1,0,2.16,0,3.4v5c0,1.83.06,2.86.11,4,0,.29-.11.36-.4.36-.63,0-1.3,0-1.94,0-.25,0-.27,0-.27-.34V51.46ZM562.59,42h-8.17v7.24h8.17Z"/><path class="cls-1" d="M573.79,43.21c.1-.15.21-.26.4-.21a14.55,14.55,0,0,1,4,2c.14.11.23.19.23.32a.52.52,0,0,1-.09.23,8.42,8.42,0,0,1-.92,1.6c-.1.12-.19.21-.27.21s-.15,0-.25-.13A18.37,18.37,0,0,0,572.67,45C573.2,44.15,573.54,43.54,573.79,43.21Zm3.4,7.79a34.86,34.86,0,0,0,5.75-3.64,38.1,38.1,0,0,0,6-5.85,10.06,10.06,0,0,0,.61,2.35,1,1,0,0,1,.1.4.65.65,0,0,1-.23.48,39.06,39.06,0,0,1-5.33,4.85,49,49,0,0,1-6.28,3.95,6.93,6.93,0,0,0-1.22.71.44.44,0,0,1-.33.17.55.55,0,0,1-.42-.25A13.26,13.26,0,0,1,574.33,52,9.47,9.47,0,0,0,577.19,51Zm-.86-12.62c.14-.25.27-.3.52-.17a14.17,14.17,0,0,1,3.95,2.33.32.32,0,0,1,.17.27.48.48,0,0,1-.09.28,8.82,8.82,0,0,1-1.07,1.57.22.22,0,0,1-.21.13.56.56,0,0,1-.31-.15,20.29,20.29,0,0,0-4.08-2.58Zm9.61-.65c.11-.09.19-.07.32,0a9.3,9.3,0,0,1,2,2.25.2.2,0,0,1-.06.33l-.88.65c-.15.11-.25.09-.36-.06a10.5,10.5,0,0,0-2.12-2.44Zm1.87-1.37c.13-.08.19-.06.32,0a8.82,8.82,0,0,1,2,2.17.23.23,0,0,1-.06.37l-.84.66a.22.22,0,0,1-.36-.07,9.77,9.77,0,0,0-2.1-2.41Z"/><path class="cls-1" d="M604.72,51.35h2.22c1.07,0,2.25,0,3.39-.08.18,0,.27.12.29.4,0,.44,0,.9,0,1.34,0,.27-.11.4-.36.38-1.09,0-2.33,0-3.29,0h-6.6c-1.26,0-2.2,0-3.08.08-.26,0-.36-.12-.4-.44a8.89,8.89,0,0,1-.11-1.7c1.22.08,2.25.08,3.59.08h2.1V46.06h-1.15c-.86,0-1.62,0-2.58,0-.19,0-.3-.1-.34-.42s-.08-.92-.13-1.68c.91.09,2,.09,2.92.09h4.66c.95,0,1.91,0,2.84,0,.25,0,.31.11.33.36,0,.42,0,.88,0,1.3s-.1.42-.42.4c-.82,0-1.87,0-2.73,0h-1.15Z"/><path class="cls-1" d="M630.07,40.41a2,2,0,0,0,1-.25.41.41,0,0,1,.27-.08.61.61,0,0,1,.33.12,9.67,9.67,0,0,1,1.43,1.14.66.66,0,0,1,.27.48.58.58,0,0,1-.25.44,2.63,2.63,0,0,0-.69.9,28.72,28.72,0,0,1-4.16,6.49,26.34,26.34,0,0,1-6.38,5.23.62.62,0,0,1-.34.11.76.76,0,0,1-.48-.24,5.43,5.43,0,0,0-2-1,24.3,24.3,0,0,0,7-5.36,21.19,21.19,0,0,0,3.88-6l-5.08.15a28.58,28.58,0,0,1-4,4.3.62.62,0,0,1-.44.23.51.51,0,0,1-.31-.12,5.74,5.74,0,0,0-2-.91,24.73,24.73,0,0,0,5.65-6.23,9.06,9.06,0,0,0,1.24-2.84,10.13,10.13,0,0,1,2.45,1.12.43.43,0,0,1,.22.35.42.42,0,0,1-.24.36,2.39,2.39,0,0,0-.52.57l-.69,1Z"/><path class="cls-1" d="M648.13,43.12A29.67,29.67,0,0,1,654.8,46c.23.12.34.27.23.54a12,12,0,0,1-.9,1.83c-.08.15-.17.23-.27.23a.33.33,0,0,1-.23-.1,23,23,0,0,0-5.52-2.69v4.64c0,1.36,0,2.6.08,4.11,0,.26-.08.32-.38.32a14.59,14.59,0,0,1-1.87,0c-.29,0-.4-.06-.4-.32.07-1.55.09-2.79.09-4.13V40.08a15.77,15.77,0,0,0-.21-3.11,15,15,0,0,1,2.62.34c.3.06.4.19.4.35a1.06,1.06,0,0,1-.17.49,5.68,5.68,0,0,0-.14,2Z"/><path class="cls-1" d="M672.74,41a26.4,26.4,0,0,1-2.63,9.05c-.9,1.58-2,2.42-3.57,2.42-1.84,0-3.71-2-3.71-5.4a7.75,7.75,0,0,1,2.37-5.46A9.19,9.19,0,0,1,672,39c5,0,8,3.1,8,7.28,0,3.91-2.2,6.36-6.46,7.64-.44.13-.63,0-.91-.37a4.47,4.47,0,0,0-1.47-1.33c3.55-.84,6.34-2.31,6.34-6.27a4.78,4.78,0,0,0-4.7-4.88Zm-6,2A6,6,0,0,0,665.07,47c0,1.94.78,3,1.43,3s1-.28,1.58-1.28a24.22,24.22,0,0,0,2.22-7.52A6.31,6.31,0,0,0,666.71,43.08Z"/><path class="cls-1" d="M687.63,46.88c-1.89,0-2.54,0-2.67,0s-.23,0-.23-.21v-2c0-.19,0-.21.23-.21s.78,0,2.67,0h12.66c1.89,0,2.54,0,2.67,0s.23,0,.23.21v2c0,.19,0,.21-.23.21s-.78,0-2.67,0Z"/><path class="cls-1" d="M711.09,48.75c.65-.29,1.32-.61,2-1a7.23,7.23,0,0,0,.07,1.37c.08.67.08.67-.51,1a35.08,35.08,0,0,1-4.13,1.79,2.3,2.3,0,0,0-.65.33.64.64,0,0,1-.34.17c-.13,0-.21-.06-.3-.27-.18-.57-.31-1.13-.5-2a13.44,13.44,0,0,0,2-.55l.29-.1V45c-1.15,0-1.49,0-1.62,0s-.21,0-.21-.23V43.27c0-.19,0-.21.21-.21s.47,0,1.62,0V39.45h0c-1.3,0-1.68,0-1.81,0s-.23,0-.23-.25V37.77c0-.21,0-.23.23-.23s.51,0,1.83,0H711c1.32,0,1.7,0,1.83,0s.23,0,.23.23v1.47c0,.23,0,.25-.23.25s-.51,0-1.7,0V43.1c.94,0,1.25,0,1.38,0s.23.06.23.21v1.51c0,.21,0,.23-.23.23l-1.38,0Zm10.72-3.42c1.89,0,2.54,0,2.67,0s.23,0,.23.21,0,.46,0,1.34V49l1.22.69a.33.33,0,0,1,.17.28c0,.12-.11.17-.24.23a2.23,2.23,0,0,0-.44.31A15.33,15.33,0,0,1,723.64,52a13.58,13.58,0,0,0,3,1.16,7,7,0,0,0-.86,1.26c-.16.4-.23.54-.4.54a1.43,1.43,0,0,1-.5-.17A13,13,0,0,1,719.84,51c0,2.87.11,4,.11,4.41,0,.21,0,.23-.21.23h-1.68c-.21,0-.23,0-.23-.23,0-.42.06-1.54.08-4.35a16.78,16.78,0,0,1-5.15,3.59,1.11,1.11,0,0,1-.48.19c-.17,0-.25-.15-.46-.51a6.41,6.41,0,0,0-.94-1.13A17.58,17.58,0,0,0,717,49.61c-1.91,0-2.56,0-2.69,0s-.25,0-.25-.21,0-.46,0-1.34V46.86c0-.88,0-1.2,0-1.34s0-.21.25-.21.8,0,2.77,0Zm-5.5-.95c-2,0-2.71,0-2.83,0s-.23,0-.23-.23V42.83c0-.21,0-.23.23-.23s.8,0,2.83,0h6.51c2,0,2.73,0,2.88,0s.23,0,.23.23v1.36c0,.21,0,.23-.23.23s-.84,0-2.88,0Zm5.88-7.3c2,0,2.67,0,2.81,0s.24,0,.24.24,0,.48,0,1.4v1.47c0,.92,0,1.24,0,1.37s0,.25-.24.25-.83,0-2.81,0h-5.44c-2,0-2.77,0-2.89,0s-.23,0-.23-.25,0-.45,0-1.37V38.67c0-.92,0-1.26,0-1.4s0-.24.23-.24.84,0,2.81,0Zm-5.14,3.15V38.59h-1.64v1.64Zm5.69,6.63H716v1.32h6.7Zm-4.18-6.63h1.66V38.59h-1.66Zm1.93,9.38a11.63,11.63,0,0,0,1.72,1.51,15.5,15.5,0,0,0,1.58-1.49l-2,0Zm3-11h-1.68v1.64h1.68Z"/><path class="cls-1" d="M737.84,37.52c.25.06.38.16.38.33s-.15.59-.15.88.06.93.1,1.41a28.21,28.21,0,0,0,.68,3.61l3-1.59A5.31,5.31,0,0,0,743.28,41a11.19,11.19,0,0,1,1.53,2,.86.86,0,0,1,.15.44c0,.21-.13.38-.42.42a9.35,9.35,0,0,0-2,.63,29,29,0,0,0-4.93,2.45c-1.83,1.2-2.48,2.19-2.48,3.17,0,1.24.92,1.77,3.34,1.77a36,36,0,0,0,6.4-.49c.23,0,.34,0,.38.26a19.1,19.1,0,0,1,.21,2c0,.23-.13.33-.38.36a45.27,45.27,0,0,1-6.26.31c-4,0-6.06-1.3-6.06-4,0-2.33,1.53-3.86,4-5.42a31,31,0,0,1-1.1-5.12,9.13,9.13,0,0,0-.54-2.43A12.1,12.1,0,0,1,737.84,37.52Z"/><path class="cls-1" d="M759.43,37.73c.35.08.5.19.5.4a2.12,2.12,0,0,1-.21.69,12.63,12.63,0,0,0-.29,2.56c-.21,3.23-.32,5.38-.32,8.13,0,2.12.25,2.6,1.93,2.6,1.87,0,4.79-1.13,7.35-3.86a7.5,7.5,0,0,0,.49,2,1.45,1.45,0,0,1,.16.5c0,.19-.08.36-.42.65a12,12,0,0,1-8,3.15c-2.69,0-3.95-1.07-3.95-4.28,0-3.53.19-6.55.29-9.07a13.82,13.82,0,0,0-.21-3.84A20.33,20.33,0,0,1,759.43,37.73Z"/><path class="cls-1" d="M785.76,41.21c-2.56.48-4.81.93-7.06,1.39-.79.19-1,.23-1.32.33a1.07,1.07,0,0,1-.46.17.48.48,0,0,1-.4-.31,16.18,16.18,0,0,1-.78-2.27,28.73,28.73,0,0,0,3.34-.36c2.59-.38,7.2-1.07,12.62-1.78.32,0,.42.08.44.23a11.26,11.26,0,0,1,.23,1.85c0,.25-.12.31-.4.31a9.49,9.49,0,0,0-2.56.46c-3.57,1.22-5.35,3.68-5.35,6.2,0,2.71,1.93,4.17,5.58,4.41.34,0,.47.08.47.31a7.37,7.37,0,0,1-.24,1.81c-.06.31-.14.44-.39.44-3.7,0-7.75-2.12-7.75-6.49,0-3,1.49-5,4-6.66Z"/><path class="cls-1" d="M802,38.55a10.32,10.32,0,0,0-.15-2,20.38,20.38,0,0,1,2.19.15c.19,0,.31.08.31.21a1.35,1.35,0,0,1-.14.46,2.63,2.63,0,0,0-.13,1.15v.72h1c1.66,0,2.2,0,2.33,0s.23,0,.23.23V40.9c0,.21,0,.23-.23.23s-.67,0-2.33,0h-1V43h1.41c1.95,0,2.6,0,2.73,0s.23,0,.23.23v1.5c0,.23,0,.25-.23.25s-.78,0-2.73,0H804v1.8h1.09c1.83,0,2.44,0,2.58,0s.24,0,.24.23-.05.78-.05,2.12v.74c0,1.17.05,1.8.05,2.37a1.49,1.49,0,0,1-.49,1.34,2.74,2.74,0,0,1-1.76.4c-.65,0-.65,0-.76-.63a3.91,3.91,0,0,0-.46-1.32,8.91,8.91,0,0,0,.93.06c.33,0,.48-.12.48-.52v-2.9H804v2.77c0,2.58,0,3.91,0,4s0,.21-.23.21h-1.7c-.21,0-.23,0-.23-.21s0-1.43,0-4V48.54h-1.74v3.11c0,1.26,0,1.84,0,2s0,.23-.23.23h-1.68c-.21,0-.23,0-.23-.23s0-.71,0-2.08V48.79c0-1.26,0-1.76,0-1.91s0-.23.23-.23.78,0,2.6,0h1v-1.8h-1.76c-2,0-2.63,0-2.75,0s-.23,0-.23-.25v-1.5c0-.2,0-.23.23-.23s.8,0,2.75,0H802V41.09h-2c-.19.44-.38.84-.57,1.19s-.23.46-.38.46a1.15,1.15,0,0,1-.5-.25,5.32,5.32,0,0,0-1.28-.61,11.14,11.14,0,0,0,1.61-3.71,4.6,4.6,0,0,0,.11-1,18.06,18.06,0,0,1,1.83.4c.25.06.31.13.31.25a.62.62,0,0,1-.15.36,1.89,1.89,0,0,0-.21.61l-.12.44H802Zm7.39,2.79a23.25,23.25,0,0,0-.14-3.11c.73,0,1.4.06,2.12.15.21,0,.31.1.31.23a1.46,1.46,0,0,1-.15.46,15,15,0,0,0-.06,2.25v5.79c0,1.79,0,2.65,0,2.77s0,.23-.25.23h-1.68c-.21,0-.23,0-.23-.23s0-1,0-2.77Zm6.13,7.14c0,1.47.07,3.15.07,4.2s-.15,1.72-.76,2.14-1.15.54-3,.54c-.63,0-.63,0-.78-.67a6,6,0,0,0-.61-1.64,15.22,15.22,0,0,0,2,.13c.69,0,.9-.15.9-.82V39.66a16.77,16.77,0,0,0-.17-3,20.38,20.38,0,0,1,2.25.12c.23,0,.36.13.36.23a1.09,1.09,0,0,1-.15.45,6.9,6.9,0,0,0-.13,2.12Z"/><path class="cls-1" d="M822.62,47.3c0-.78,0-1.72,0-2.64a21.37,21.37,0,0,1-1.58,1.93c-.14.17-.27.25-.35.25s-.21-.11-.28-.36a5,5,0,0,0-.77-1.82,19.49,19.49,0,0,0,4.26-6.91,8,8,0,0,0,.38-1.51,19.24,19.24,0,0,1,2,.61c.26.1.34.18.34.31s0,.23-.21.38-.25.29-.46.88c-.36.92-.78,1.87-1.24,2.77V52.13c0,2.06,0,3.09,0,3.19s0,.23-.23.23h-1.78c-.22,0-.24,0-.24-.23s0-1.13,0-3.19Zm7-5.29a23.64,23.64,0,0,1-2.52,3.8c-.19.23-.29.34-.4.34s-.23-.13-.4-.42a5,5,0,0,0-1-1.29,19.34,19.34,0,0,0,3.84-6.55,7.39,7.39,0,0,0,.33-1.59c.78.15,1.43.27,2.08.46.25.06.4.17.4.32a.46.46,0,0,1-.19.39,2.93,2.93,0,0,0-.54,1c-.19.51-.4,1-.65,1.56h5.48c1.86,0,2.49,0,2.6,0s.25,0,.25.25V41.8c0,.23,0,.25-.25.25s-.74,0-2.6,0h-3.43v2.5h2.69c1.66,0,2.21,0,2.33,0s.23,0,.23.23v1.53c0,.21,0,.23-.23.23s-.67,0-2.33,0h-2.69V49h2.69c1.68,0,2.25,0,2.37,0s.23,0,.23.21V50.7c0,.23,0,.25-.23.25s-.69,0-2.37,0h-2.69v1.16c0,2.1.05,3.17.05,3.27s0,.23-.24.23H830.7c-.21,0-.23,0-.23-.23s0-1.17,0-3.27V42Z"/><path class="cls-1" d="M849.73,37.73c.35.08.5.19.5.4a2.12,2.12,0,0,1-.21.69,12.63,12.63,0,0,0-.29,2.56c-.21,3.23-.32,5.38-.32,8.13,0,2.12.25,2.6,1.93,2.6,1.87,0,4.79-1.13,7.35-3.86a7.53,7.53,0,0,0,.48,2,1.31,1.31,0,0,1,.17.5c0,.19-.08.36-.42.65A12,12,0,0,1,851,54.54c-2.69,0-4-1.07-4-4.28,0-3.53.19-6.55.29-9.07a13.82,13.82,0,0,0-.21-3.84A20.33,20.33,0,0,1,849.73,37.73Z"/><path class="cls-1" d="M876.06,41.21c-2.56.48-4.81.93-7.06,1.39-.79.19-1,.23-1.32.33a1.07,1.07,0,0,1-.46.17.49.49,0,0,1-.4-.31,15.11,15.11,0,0,1-.77-2.27,28.59,28.59,0,0,0,3.33-.36c2.59-.38,7.21-1.07,12.62-1.78.32,0,.42.08.44.23a11.26,11.26,0,0,1,.23,1.85c0,.25-.12.31-.4.31a9.49,9.49,0,0,0-2.56.46c-3.57,1.22-5.35,3.68-5.35,6.2,0,2.71,1.93,4.17,5.58,4.41.34,0,.47.08.47.31a7.37,7.37,0,0,1-.24,1.81c-.06.31-.14.44-.39.44-3.7,0-7.75-2.12-7.75-6.49,0-3,1.49-5,4-6.66Z"/><path class="cls-1" d="M891.77,40a.48.48,0,0,1,.33.37,1.87,1.87,0,0,1-.16.59,9.07,9.07,0,0,0-.19,2.06,26.21,26.21,0,0,0,.38,4.79c.29,1.65.84,3.08,1.72,3.08.67,0,1.19-.73,2-2.92a8.21,8.21,0,0,0,1.35,1.62.64.64,0,0,1,.14.78c-.79,2.14-2.1,3.27-3.57,3.27-1.63,0-3.36-1.93-3.92-5.48a37.59,37.59,0,0,1-.51-6.11,11.3,11.3,0,0,0-.25-2.75A9.05,9.05,0,0,1,891.77,40Zm9.74,1.32a.68.68,0,0,1,.23-.09.32.32,0,0,1,.23.13,14,14,0,0,1,4.12,7.18c.06.27-.07.36-.23.46a7.08,7.08,0,0,1-1.64.84c-.25.09-.4,0-.44-.23a14.22,14.22,0,0,0-3.93-7.33C900.65,41.8,901.17,41.51,901.51,41.34Z"/><path class="cls-1" d="M918.75,46.8a36.65,36.65,0,0,1-4.32-.09c-.23,0-.32-.08-.34-.35a13.34,13.34,0,0,1-.12-1.79,29.72,29.72,0,0,0,4.72.17c0-.8,0-1.62,0-2.42a33.39,33.39,0,0,1-5-.1c-.23,0-.34-.08-.36-.29-.06-.53-.1-1-.14-1.89a47.9,47.9,0,0,0,5.5.21c0-.78,0-1.33,0-2a6.51,6.51,0,0,0-.26-1.41,12.5,12.5,0,0,1,2.65.38.43.43,0,0,1,.23.63,2.78,2.78,0,0,0-.32,1c0,.42,0,.71,0,1.34a34.36,34.36,0,0,0,4.6-.63c.25-.06.34,0,.36.25a11.87,11.87,0,0,1,.1,1.54c0,.27-.06.31-.23.33a44.14,44.14,0,0,1-4.85.55c0,.84,0,1.62,0,2.37A38.24,38.24,0,0,0,925,44c.25-.06.31,0,.33.17,0,.4.07,1.09.07,1.73,0,.2-.09.27-.32.29a36.71,36.71,0,0,1-4.11.5c0,1,.08,2,.14,3a19,19,0,0,1,5.57,2.54c.21.19.21.26.14.51a6,6,0,0,1-.92,1.55.3.3,0,0,1-.27.17.29.29,0,0,1-.23-.11,17,17,0,0,0-4.18-2.39c0,2.27-1.39,3.19-4.26,3.19s-4.29-1.2-4.29-2.94,1.66-3,4.2-3a19.06,19.06,0,0,1,2,.09C918.82,48.37,918.77,47.51,918.75,46.8ZM917,51c-1.53,0-2.27.44-2.27,1.11s.63,1,2.08,1a2.62,2.62,0,0,0,1.91-.63,2,2,0,0,0,.23-1.18A8.84,8.84,0,0,0,917,51Z"/><path class="cls-1" d="M942.19,38.42a7,7,0,0,0-.25-1.53,21.82,21.82,0,0,1,2.45.29c.36.06.59.21.59.4a.84.84,0,0,1-.19.48,2.77,2.77,0,0,0-.17.61c0,.27,0,.55,0,1.35,2.27-.09,4.43-.11,6.45-.11.25,0,.29,0,.31.32,0,.52,0,1.07,0,1.59,0,.23-.1.29-.35.27-2.19-.06-4.22-.06-6.41,0,0,1.28,0,2.63,0,3.91a6.48,6.48,0,0,1,.32,2.08,7.85,7.85,0,0,1-3.74,6.78,2,2,0,0,1-.82.4,1.18,1.18,0,0,1-.63-.32,4.7,4.7,0,0,0-1.59-.84,7,7,0,0,0,4.3-4.62,2.42,2.42,0,0,1-2,.84,2.9,2.9,0,0,1-2.92-3.21,3.06,3.06,0,0,1,3.17-3.15,2.62,2.62,0,0,1,1.6.42c0-.74,0-1.45,0-2.14-2.64.15-5.6.4-7.26.63-.46.06-.8.25-1,.25s-.29-.08-.35-.29a14.62,14.62,0,0,1-.53-2.12,13.71,13.71,0,0,0,2.56-.09c1.28-.1,4-.27,6.51-.42C942.21,39.51,942.21,39,942.19,38.42Zm-2.69,8.5a1.3,1.3,0,0,0,1.34,1.43,1.35,1.35,0,0,0,1.43-1.45,1.25,1.25,0,0,0-1.38-1.34A1.34,1.34,0,0,0,939.5,46.92Z"/><path class="cls-1" d="M961.3,53a3,3,0,1,1-3-3A3,3,0,0,1,961.3,53Zm-4.79,0a1.75,1.75,0,1,0,1.74-1.74A1.71,1.71,0,0,0,956.51,53Z"/><circle class="cls-1" cx="19.03" cy="45.73" r="10.3"/></svg>