<svg id="レイヤー_1" data-name="レイヤー 1" xmlns="http://www.w3.org/2000/svg" viewBox="0 0 295.57 283.99"><defs><style>.cls-1{fill:#0797e4;}</style></defs><title>logo--circle</title><path class="cls-1" d="M138,279.25c-48.92-5.09-90.62-33.75-112.07-77a141.68,141.68,0,0,1-13.27-42.08c-1.48-9.43-1.48-30.63,0-40.45A140,140,0,0,1,134.15,1.17c9.57-1.19,30.72-.85,39.38.63,62.84,10.72,110.2,61.05,116.71,124,.85,8.26.38,27.78-.86,35.3a141.25,141.25,0,0,1-29.71,66.94,144,144,0,0,1-46.77,37.3,140.74,140.74,0,0,1-41.81,13c-7.9,1.14-25.89,1.61-33.09.86Zm27.67-37a102.67,102.67,0,0,0,56.42-27.31,104.7,104.7,0,0,0,30.19-54.06,103.34,103.34,0,0,0-69.05-119c-11-3.69-19.15-4.93-32.21-4.93-8.64,0-12.44.27-18,1.28a106.8,106.8,0,0,0-46.3,21c-3.83,3-12.86,12.06-16.63,16.72a105.48,105.48,0,0,0-17.07,32c-3.94,12-4.72,17.4-4.72,32.27,0,16.42,1.38,24.05,6.86,37.9,12.93,32.67,42.26,57,76.3,63.35,8.18,1.52,8.87,1.58,19.2,1.69a104.65,104.65,0,0,0,15-.83ZM141.25,214c-11.2-1.43-25.11-7.09-34.36-14S89,183,84.27,173.18a69.83,69.83,0,0,1-7.67-30.41A74.57,74.57,0,0,1,138.81,66.3c7.53-1.31,23-.83,29.68.93,26,6.81,46,25.47,53.81,50.22,5.66,17.93,4.09,39-4.12,55.33A75.33,75.33,0,0,1,141.25,214Zm18.5-36.93a38.78,38.78,0,0,0,28.34-27.58,41.05,41.05,0,0,0-.62-21,35.1,35.1,0,0,0-9.75-15.71,38,38,0,0,0-60.43,9.51A35,35,0,0,0,113.14,140c0,10.86,3.33,18.84,11.23,26.75,5.48,5.49,10.95,8.69,17.61,10.3a48.69,48.69,0,0,0,17.77,0Z"/></svg>