<?xml version="1.0" encoding="UTF-8" standalone="no"?>
<svg
   xmlns:dc="http://purl.org/dc/elements/1.1/"
   xmlns:cc="http://creativecommons.org/ns#"
   xmlns:rdf="http://www.w3.org/1999/02/22-rdf-syntax-ns#"
   xmlns:svg="http://www.w3.org/2000/svg"
   xmlns="http://www.w3.org/2000/svg"
   viewBox="0 0 906.97512 167.78989"
   height="167.78989"
   width="906.9751"
   version="1.1"
   id="svg4290">
  <metadata
     id="metadata4296">
    <rdf:RDF>
      <cc:Work
         rdf:about="">
        <dc:format>image/svg+xml</dc:format>
        <dc:type
           rdf:resource="http://purl.org/dc/dcmitype/StillImage" />
        <dc:title></dc:title>
      </cc:Work>
    </rdf:RDF>
  </metadata>
  <defs
     id="defs4294" />
  <path
     d="m 134.99999,112.16989 c 8.64,7.38 15.48,12.42 26.64,19.26 2.88,-7.2 5.58,-12.42 10.44,-18.54 -18.9,-9.18 -30.6,-17.639998 -43.56,-31.679998 l 18.18,0 c 8.1,0 14.58,0.36 20.7,1.08 l 0,-18.18 c -5.04,0.72 -11.34,1.08 -20.52,1.08 l -30.42,0 c -2.34,-3.6 -3.42,-5.76 -5.58,-10.08 l 20.52,0 c 9.9,0 14.4,0.18 19.08,0.72 l 0,-16.92 c -4.5,0.54 -8.82,0.72 -19.08,0.72 l -46.259996,0 c 1.08,-3.6 1.62,-5.22 2.52,-8.82 l 49.679996,0 c 9,0 14.76,0.36 20.52,0.9 l 0,-18.18 c -5.4,0.72 -11.52,1.08 -21.42,1.08 l -45.359996,0 c 0.54,-2.7 0.54,-2.7 0.72,-4.14 0.72,-4.32 1.08,-5.76 1.98,-9 l -21.24,-1.44 c 0,0.72 0,1.62 0,1.8 0,4.32 -0.18,7.02 -1.08,12.78 l -36.36,0 c -9.539996,0 -15.839996,-0.36 -21.419994,-1.08 l 0,18.18 c 5.939998,-0.72 11.519998,-0.9 20.519994,-0.9 l 33.66,0 c -1.08,3.78 -1.62,5.22 -2.7,8.82 l -25.38,0 c -9.899996,0 -14.219996,-0.18 -18.719996,-0.72 l 0,16.92 c 4.5,-0.54 9,-0.72 18.719996,-0.72 l 19.08,0 c -1.98,3.96 -3.06,5.94 -5.4,10.08 l -28.079996,0 c -9.54,0 -16.019998,-0.36 -21.059997,-1.08 l 0,18.18 c 6.119999,-0.72 12.599997,-1.08 21.239997,-1.08 l 16.739996,0 C 31.139998,94.169892 18.359998,104.24989 0,113.96989 c 4.86,5.22 8.64,10.8 11.340001,17.1 10.259997,-6.48 16.739997,-11.16 24.659993,-18 l 0,33.48 c 0,10.26 -0.18,15.48 -1.08,21.24 l 19.62,0 0,-7.56 61.559996,0 0,7.2 19.98,0 c -0.9,-5.58 -1.08,-10.62 -1.08,-21.42 l 0,-33.84 z M 56.879994,91.649892 c 2.88,-3.42 4.68,-5.94 7.92,-10.44 l 42.119996,0 c 3.06,4.32 4.68,6.66 7.74,10.44 l -57.779996,0 z m 17.46,-26.46 c 2.16,-4.14 3.24,-6.12 4.86,-10.08 l 13.5,0 c 2.52,5.76 3.06,7.02 4.5,10.08 l -22.86,0 z m -19.8,41.759998 61.559996,0 0,10.62 -61.559996,0 0,-10.62 z m 0,25.56 61.559996,0 0,11.88 -61.559996,0 0,-11.88 z"
     id="path4870"
     style="font-style:normal;font-variant:normal;font-weight:600;font-stretch:normal;font-size:medium;line-height:125%;font-family:'ヒラギノ角ゴ ProN';-inkscape-font-specification:'ヒラギノ角ゴ ProN Semi-Bold';letter-spacing:0px;word-spacing:0px;fill:#0ca2e8;fill-opacity:1;stroke:none;stroke-width:1px;stroke-linecap:butt;stroke-linejoin:miter;stroke-opacity:1" />
  <path
     d="m 260.72575,145.67978 c 0,8.46 -0.36,15.66 -1.08,21.78 l 21.42,0 0,-10.8 83.7,0 0,10.8 21.78,0 c -0.72,-6.48 -1.08,-12.42 -1.08,-21.78 l 0,-116.279998 c 0,-6.3 0.18,-11.52 0.9,-18.36 -5.4,0.72 -10.98,0.9 -19.44,0.9 l -87.12,0 c -8.28,0 -14.22,-0.18 -19.98,-0.9 0.54,5.94 0.9,12.24 0.9,19.26 l 0,115.379998 z m 20.34,-114.659998 83.7,0 0,41.76 -83.7,0 0,-41.76 z m 0,60.66 83.7,0 0,46.079998 -83.7,0 0,-46.079998 z"
     id="path4872"
     style="font-style:normal;font-variant:normal;font-weight:600;font-stretch:normal;font-size:medium;line-height:125%;font-family:'ヒラギノ角ゴ ProN';-inkscape-font-specification:'ヒラギノ角ゴ ProN Semi-Bold';letter-spacing:0px;word-spacing:0px;fill:#0ca2e8;fill-opacity:1;stroke:none;stroke-width:1px;stroke-linecap:butt;stroke-linejoin:miter;stroke-opacity:1" />
  <path
     d="m 630.62053,64.469892 c 9.9,0 15.3,0.36 22.5,1.26 l 0,-22.86 c -6.12,0.9 -12.42,1.26 -22.68,1.26 l -47.7,0 c 0.18,-6.66 0.36,-10.8 0.36,-18.18 0.18,-12.06 0.36,-14.76 1.26,-21.06 l -23.76,0 c 0.72,5.04 1.26,10.44 1.26,18 0,9.36 -0.18,12.24 -0.54,21.24 l -44.1,0 c -10.62,0 -17.1,-0.36 -22.68,-1.26 l 0,22.86 c 5.94,-0.9 11.16,-1.26 22.5,-1.26 l 42.48,0 c -4.32,30.6 -16.38,50.759998 -40.5,67.859998 -9,6.3 -16.2,10.08 -29.16,15.3 5.76,6.48 9.54,12.06 12.6,18.9 17.82,-7.74 30.78,-16.2 43.02,-28.26 14.4,-14.22 23.94,-29.7 29.34,-48.239998 6.66,16.739998 15.48,31.139998 27.18,43.559998 12.78,13.86 25.2,23.04 44.46,32.94 4.5,-9.72 7.02,-13.5 13.14,-20.7 -21.42,-8.82 -36.36,-19.08 -49.68,-34.2 -11.88,-13.499998 -21.42,-30.959998 -25.92,-47.159998 l 46.62,0 z"
     id="path4874"
     style="font-style:normal;font-variant:normal;font-weight:600;font-stretch:normal;font-size:medium;line-height:125%;font-family:'ヒラギノ角ゴ ProN';-inkscape-font-specification:'ヒラギノ角ゴ ProN Semi-Bold';letter-spacing:0px;word-spacing:0px;fill:#0ca2e8;fill-opacity:1;stroke:none;stroke-width:1px;stroke-linecap:butt;stroke-linejoin:miter;stroke-opacity:1" />
  <path
     d="m 818.05509,116.82001 0,26.64 c 0,3.6 -1.26,4.14 -9.18,4.14 -5.58,0 -13.68,-0.54 -22.32,-1.8 3.06,6.48 3.96,9.54 5.94,19.08 9.36,0.54 15.3,0.72 17.64,0.72 16.2,0 22.32,-1.44 25.38,-5.94 1.8,-2.52 2.34,-5.04 2.34,-11.34 l 0,-31.5 46.8,0 c 9.36,0 17.1,0.36 22.32,1.08 l 0,-19.979998 c -5.4,0.9 -13.32,1.26 -22.14,1.26 l -46.98,0 0,-0.18 c 14.04,-8.64 23.22,-15.3 36,-26.28 3.42,-2.88 3.42,-2.88 6.48,-5.4 l -9.9,-10.98 c -3.24,0.54 -6.66,0.72 -13.68,0.72 l -59.58,0 c -7.74,0 -12.78,-0.18 -18.18,-0.9 l 0,18 c 5.76,-0.54 10.62,-0.72 18,-0.72 l 49.5,0 c -7.56,6.66 -13.5,10.62 -21.24,14.58 l -7.74,0 c 0.36,3.06 0.54,6.3 0.54,9.9 l 0,1.26 -48.96,0 c -8.46,0 -15.66,-0.36 -21.78,-1.26 l 0,19.979998 c 5.58,-0.72 12.6,-1.08 21.96,-1.08 l 48.78,0 z m -48.06,-88.919998 c -12.06,0 -13.14,0 -21.24,-0.72 0.54,4.68 0.72,8.46 0.72,14.94 l 0,16.56 c 0,5.58 -0.18,9.72 -0.9,13.86 l 19.62,0 0,-27.9 117.36,0 0,27.9 19.62,0 c -0.54,-4.32 -0.9,-8.82 -0.9,-13.68 l 0,-16.74 c 0,-6.84 0.18,-10.44 0.72,-14.94 -6.48,0.54 -9.9,0.72 -22.14,0.72 l -8.1,0 c 4.14,-5.58 9.36,-13.86 13.5,-21.600004 L 868.81509,0.9 c -3.06,8.460012 -9.36,19.800012 -14.76,27.000012 l -15.3,0 c -3.96,-11.52 -5.04,-14.04 -12.42,-27.900012 l -18.72,5.220008 c 5.04,7.920004 7.92,14.220004 10.98,22.680004 l -19.08,0 c -5.94,-11.52 -10.08,-18 -16.38,-25.740007 l -18.18,5.400003 c 7.02,8.820004 9.36,12.420004 13.5,20.340004 l -8.46,0 z"
     id="path4876"
     style="font-style:normal;font-variant:normal;font-weight:600;font-stretch:normal;font-size:medium;line-height:125%;font-family:'ヒラギノ角ゴ ProN';-inkscape-font-specification:'ヒラギノ角ゴ ProN Semi-Bold';letter-spacing:0px;word-spacing:0px;fill:#0ca2e8;fill-opacity:1;stroke:none;stroke-width:1px;stroke-linecap:butt;stroke-linejoin:miter;stroke-opacity:1" />
</svg>
