<?xml version="1.0" encoding="UTF-8" standalone="no"?>
<svg
   xmlns:dc="http://purl.org/dc/elements/1.1/"
   xmlns:cc="http://creativecommons.org/ns#"
   xmlns:rdf="http://www.w3.org/1999/02/22-rdf-syntax-ns#"
   xmlns:svg="http://www.w3.org/2000/svg"
   xmlns="http://www.w3.org/2000/svg"
   viewBox="0 0 1212.4407 360.776"
   height="360.776"
   width="1212.4407"
   version="1.1"
   id="svg4290">
  <metadata
     id="metadata4296">
    <rdf:RDF>
      <cc:Work
         rdf:about="">
        <dc:format>image/svg+xml</dc:format>
        <dc:type
           rdf:resource="http://purl.org/dc/dcmitype/StillImage" />
        <dc:title></dc:title>
      </cc:Work>
    </rdf:RDF>
  </metadata>
  <defs
     id="defs4294" />
  <path
     id="path4840"
     d="M 41.688525,358.53111 C 21.668556,352.79967 7.0821425,336.6538 1.8414945,314.42395 -0.37943054,305.00321 -0.65147654,281.29207 1.3535085,271.89178 5.9869705,250.168 20.698008,232.98406 39.681835,227.12056 c 9.676015,-2.98861 31.161525,-3.37266 41.071095,-0.73414 28.27661,7.52893 44.3787,34.57441 42.49838,71.38134 -1.70657,33.40546 -18.39544,56.0183 -45.55967,61.73176 -9.70665,2.04161 -27.12569,1.57306 -36.003115,-0.96841 z M 74.59332,335.15637 c 7.31497,-2.69411 15.57824,-12.19296 18.58706,-21.36632 1.84131,-5.61379 2.36386,-10.69315 2.29134,-22.27229 -0.11375,-18.15805 -2.68031,-26.21238 -11.11999,-34.89616 -12.31265,-12.66878 -34.02257,-12.33095 -46.53453,0.72412 -14.795076,15.4373 -15.062337,53.50485 -0.492148,70.09938 8.622348,9.82031 23.297408,12.85677 37.268268,7.71127 z m 610.42085,23.87431 c -21.70866,-4.92983 -36.3235,-19.87894 -36.3235,-37.15432 l 0,-4.82106 12.68412,0.35623 12.68412,0.35623 1.71567,5.89279 c 3.07834,10.57317 13.73961,15.56967 30.87526,14.46997 14.90538,-0.95657 22.04083,-6.39377 22.04083,-16.79506 0,-3.31584 -0.94414,-5.32162 -3.72975,-7.92379 -3.82939,-3.57717 -8.46613,-5.05183 -36.89525,-11.73409 -24.13239,-5.6723 -33.83164,-13.00003 -36.92401,-27.89591 -4.55152,-21.92451 7.91962,-41.38807 30.34402,-47.3576 7.64646,-2.03554 26.62684,-2.28573 34.56526,-0.45564 19.04257,4.39002 32.35678,17.7675 34.61327,34.77774 l 0.84853,6.39659 -13.14692,0 -13.14693,0 -0.8627,-4.59859 c -1.14108,-6.0825 -7.47621,-12.28103 -14.49102,-14.1786 -7.02289,-1.89973 -20.58691,-0.98726 -25.8602,1.73965 -11.08685,5.73324 -10.896,19.22389 0.3393,23.98321 2.07822,0.88035 12.26947,3.59528 22.64721,6.03319 25.62173,6.01897 32.19719,8.64474 39.1599,15.63773 6.74785,6.77718 8.78929,12.52951 8.78929,24.76629 0,16.71356 -10.59834,30.49558 -28.23938,36.72235 -9.77265,3.44946 -30.45316,4.33383 -41.68712,1.78269 z m 142.91244,10e-4 c -13.44668,-2.92508 -23.0919,-9.23422 -28.67104,-18.7543 -5.91145,-10.08711 -6.76957,-18.57572 -6.7932,-67.19771 l -0.0217,-44.68691 13.67949,0 13.67947,0 0.38303,45.9375 0.38301,45.9375 3.125,6.16444 c 4.43364,8.74589 9.05502,10.9573 21.875,10.46756 8.16951,-0.31208 10.76953,-0.93084 14.20393,-3.38032 8.09188,-5.77129 8.2539,-6.8646 8.67831,-58.56418 l 0.38223,-46.5625 13.7589,0 13.75891,0 -0.41323,49.0625 c -0.40599,48.20455 -0.46496,49.19188 -3.3724,56.46101 -5.53994,13.85093 -16.88278,22.61017 -33.16373,25.6099 -9.64747,1.77754 -21.91516,1.58502 -31.47198,-0.4939 z m 151.33726,0.19629 c -21.388,-5.46525 -37.67108,-22.75511 -43.16676,-45.83546 -2.29435,-9.63563 -1.97458,-31.32665 0.60475,-41.02168 9.29691,-34.94478 38.65271,-53.04839 75.19674,-46.37358 17.5085,3.19795 33.6732,15.78945 39.1861,30.52392 4.4976,12.02095 4.6295,11.87134 -10.4605,11.87134 l -13.0665,0 -2.3682,-5.35379 c -4.631,-10.46907 -16.8672,-16.77676 -30.19983,-15.5678 -9.136,0.82842 -15.9743,4.37397 -22.3029,11.56367 -6.9823,7.93228 -9.1622,14.84319 -9.9175,31.4415 -1.1063,24.31055 4.6077,36.39546 20.7426,43.87008 5.7929,2.68355 7.9852,3.0256 16.25,2.53527 5.25463,-0.31174 11.24133,-1.45717 13.30383,-2.54538 5.6363,-2.9738 11.3107,-9.07871 14.2493,-15.33034 4.4494,-9.46547 4.5849,-9.36296 -12.3743,-9.36296 l -15.00003,0 0,-10.625 0,-10.625 27.50003,0 27.5,0 0,34.375 0,34.375 -9.2757,0 -9.2757,0 -0.7243,-3.75 c -0.3984,-2.0625 -1.0537,-5.45346 -1.4564,-7.53548 l -0.7321,-3.78547 -7.3048,6.76296 c -4.3714,4.04713 -9.7246,7.61793 -13.3304,8.89199 -7.8836,2.78552 -25.47503,3.57232 -33.57743,1.5018 z m -816.8232,-66.41792 0,-64.41729 46.25,0 46.25,0 0,11.25 0,11.25 -32.5,0 -32.5,0 0,15 0,15 28.125,0 28.125,0 0,11.25 0,11.25 -28.10014,0 -28.10013,0 -0.33737,26.5625 -0.33736,26.5625 -13.4375,0.35479 -13.4375,0.35479 0,-64.41729 z m 196.25,-0.0422 0,-64.375 13.72464,0 13.72464,0 0.33786,25.68105 0.33786,25.68101 24.17216,-25.68105 24.17216,-25.68105 17.69194,0 17.69194,0 -26.46543,26.5625 -26.46541,26.5625 27.41383,37.27074 c 15.0776,20.49886 27.41381,37.51448 27.41381,37.81245 0,0.29797 -7.73688,0.54176 -17.19306,0.54176 l -17.19307,0 -18.6248,-26.5625 c -10.24363,-14.60938 -19.10402,-27.10039 -19.68975,-27.75781 -0.64326,-0.72202 -3.53663,1.23921 -7.30713,4.95301 l -6.24219,6.14832 0,21.60949 0,21.60949 -13.75,0 -13.75,0 0,-64.375 z m 138.75617,64.0625 c 0.004,-0.17188 1.74702,-5.09375 3.87471,-10.9375 2.12768,-5.84375 5.72498,-15.96875 7.99398,-22.5 8.44378,-24.30513 33.024,-92.57509 33.75982,-93.76565 0.43494,-0.70382 7.34488,-1.23439 16.07549,-1.23439 l 15.31264,0 1.97436,5.9375 c 1.0859,3.26562 8.27507,23.65625 15.97593,45.3125 7.70085,21.65625 17.02101,47.95312 20.71146,58.4375 l 6.70991,19.0625 -14.90993,0 -14.90995,0 -4.00732,-13.15123 -4.00732,-13.15121 -23.8042,0.33871 -23.80421,0.33873 -4.1993,12.8125 -4.19932,12.8125 -14.27646,0 c -7.85205,0 -14.27369,-0.14063 -14.27029,-0.3125 z m 76.24383,-49.85737 c 0,-1.56133 -13.67259,-44.73609 -14.76975,-46.63932 -0.58441,-1.01378 -16.48025,44.41276 -16.48025,47.09665 0,0.52935 7.03125,0.96245 15.625,0.96245 10.82894,0 15.625,-0.4358 15.625,-1.41978 z m 516.25003,49.13377 c 0,-0.61484 10.125,-29.42982 22.5,-64.03327 12.375,-34.60345 22.5,-63.10437 22.5,-63.3354 0,-0.23101 7.1103,-0.26258 15.8007,-0.0701 l 15.8007,0.34985 22.3243,63.05742 c 12.2784,34.68154 22.3243,63.52752 22.3243,64.10213 0,0.5746 -6.5926,0.88626 -14.6502,0.69257 l -14.6503,-0.35217 -3.9169,-12.5 -3.9169,-12.5 -23.8503,-0.3392 -23.8504,-0.3392 -4.1575,12.8392 -4.1574,12.8392 -14.0501,0.35344 c -7.7275,0.19438 -14.05,-0.14962 -14.05,-0.76445 z m 76.25,-48.53415 c 0,-1.06638 -15.0715,-47.16797 -15.5894,-47.68592 -0.217,-0.21698 -4.0672,10.60812 -8.556,24.05578 l -8.1615,24.4503 16.1535,0 c 8.8844,0 16.1534,-0.36907 16.1534,-0.82016 z M 46.19067,135.82281 C 31.134136,133.89636 22.026985,129.56291 14.462653,120.72569 5.3473375,110.07648 3.7807365,98.926123 3.7292655,44.330263 l -0.038595,-40.9374997 14.3193715,0 14.319372,0 0.368129,47.8124997 c 0.350151,45.4777 0.492368,48.02399 2.912358,52.143267 4.036828,6.87145 9.603649,9.41923 20.580769,9.41923 11.6866,0 16.90031,-2.64103 20.9375,-10.60596 2.76717,-5.459347 2.8125,-6.299877 2.8125,-52.158899 l 0,-46.6101377 14.48826,0 14.48825,0 -0.51537,47.8124997 c -0.48445,44.94324 -0.6784,48.30785 -3.23189,56.066767 -3.26099,9.90868 -10.50764,18.71772 -18.82506,22.88374 -10.41029,5.2143 -26.23608,7.44783 -40.15419,5.66704 z m 772.21471,0.0239 c -25.51983,-3.01034 -41.06197,-15.87421 -44.1192,-36.516427 l -0.87937,-5.9375 13.16761,0 13.16761,0 0.76609,3.48797 c 1.43369,6.527517 5.55318,11.594087 11.65339,14.332527 8.28771,3.72043 24.74372,3.73264 33.00291,0.0245 12.37343,-5.5553 13.13243,-20.330477 1.29623,-25.233187 -1.96062,-0.81211 -13.38267,-3.89165 -25.38232,-6.84341 -25.23017,-6.2063 -32.66631,-9.47785 -38.29113,-16.84629 -5.24178,-6.86665 -7.00405,-13.743039 -6.31245,-24.631088 1.30181,-20.494713 15.29465,-33.5626947 39.62181,-37.00300574 18.84996,-2.66573096 38.19219,2.63135404 49.41792,13.53365474 5.3487,5.194599 10.01043,14.625665 11.17887,22.615817 l 0.77687,5.3125 -13.0916,0 -13.09159,0 -1.28413,-4.768913 c -2.84605,-10.569445 -16.51214,-16.442131 -32.37052,-13.910496 -16.19573,2.585492 -22.17015,17.462121 -9.98795,24.870562 2.20262,1.339487 13.60472,4.744189 25.33799,7.565999 11.73329,2.82182 24.427,6.53763 28.20825,8.25737 13.04133,5.93129 18.79455,14.28848 19.69589,28.61046 0.99854,15.866637 -6.40943,29.026277 -20.59643,36.587887 -11.3427,6.0456 -26.17483,8.34418 -41.88475,6.49103 z m -668.46471,-67.453947 0,-64.9999997 14.0625,0.009 14.0625,0.009 25,43.8840307 25,43.884029 0.32849,-43.893081 0.3285,-43.8929787 13.109,0 13.10901,0 0,65.0409397 0,65.040927 -13.81773,-0.35343 -13.81772,-0.35344 -25.26399,-43.977537 c -13.89519,-24.18765 -25.67721,-44.390774 -26.18227,-44.895834 -0.50505,-0.505061 -0.91829,19.425454 -0.91829,44.290034 l 0,45.208337 -12.5,0 -12.5,0 0,-64.999997 z m 143.75,0 0,-64.9999997 13.75,0 13.75,0 0,64.9999997 0,64.999997 -13.75,0 -13.75,0 0,-64.999997 z m 102.5,64.676407 c 0,-0.17796 -9.83373,-29.44572 -21.85271,-65.039467 l -21.85272,-64.7158927 14.66522,0.351977 14.66521,0.351976 13.72059,47.7794147 c 7.54632,26.278675 14.05664,47.372425 14.46736,46.874995 0.61923,-0.74994 9.68874,-31.72897 25.05814,-85.59191 l 2.76425,-9.6874997 14.18234,0 c 7.80027,0 14.18232,0.162514 14.18232,0.361142 0,0.198629 -8.91573,26.4955037 -19.81274,58.4374977 -10.897,31.942 -20.78596,61.029477 -21.97546,64.638857 l -2.16271,6.5625 -13.02455,0 c -7.1635,0 -13.02454,-0.14561 -13.02454,-0.32359 z m 102.5,-64.676407 0,-64.9999997 47.5,0 47.5,0 0,11.8749997 0,11.875 -33.75,0 -33.75,0 0,13.586078 0,13.586082 31.24961,-0.14858 31.2496,-0.14858 4e-4,11.5625 3.9e-4,11.5625 -31.25,0 -31.25,0 0,16.25 0,16.249997 35.625,0 35.625,0 0,11.875 0,11.875 -49.375,0 -49.375,0 0,-64.999997 z m 136.25,0 0,-64.9999997 32.71011,0 c 37.54159,0 46.08838,1.050255 54.54618,6.7027957 21.4263,14.319709 21.20145,47.709054 -0.40573,60.248424 -2.06995,1.20125 -1.86092,1.58848 2.21839,4.10963 7.67313,4.74225 9.98765,11.50081 10.95131,31.978547 0.81249,17.26508 1.63856,21.9606 3.86348,21.9606 0.61393,0 1.11626,1.125 1.11626,2.5 0,2.35975 -0.83334,2.5 -14.85421,2.5 -17.71364,0 -16.10894,2.13916 -17.55504,-23.40184 -1.494,-26.387137 -2.2763,-27.140987 -28.21575,-27.190057 l -17.5,-0.0331 -0.33839,25.312497 -0.33837,25.3125 -13.09913,0 -13.09911,3e-5 0,-64.999997 z m 65.85613,-8.83327 c 9.09568,-3.44626 12.52717,-12.7201 8.55511,-23.120793 -3.28328,-8.597147 -6.31589,-9.629291 -28.75906,-9.788083 l -18.77718,-0.132854 -0.34778,17.1875 -0.34777,17.1875 18.0789,0 c 9.9434,0 19.6624,-0.59997 21.59778,-1.33327 z m 212.89387,8.83327 0,-64.9999997 13.75,0 13.75,0 0,64.9999997 0,64.999997 -13.75,0 -13.75,0 0,-64.999997 z m 96.25003,11.875 0,-53.125 -19.37503,0 -19.375,0 0,-11.875 0,-11.8749997 52.50003,0 52.5,0 0,11.8749997 0,11.875 -19.375,0 -19.375,0 0,53.125 0,53.124997 -13.75,0 -13.75,0 0,-53.124997 z m 132.5,28.812357 0,-24.312637 -18.8861,-34.124855 c -10.3874,-18.768676 -20.5537,-37.07799 -22.5918,-40.6873647 l -3.7056,-6.5625 16.1289,0 16.1288,0 13.0254,27.4486287 c 7.164,15.096745 13.3476,27.471741 13.7413,27.500001 0.3938,0.0282 6.3219,-12.183005 13.1735,-27.13613 l 12.4575,-27.1874997 15.2641,-0.350974 c 8.3951,-0.193035 15.264,9.69e-4 15.264,0.43112 0,0.430151 -9.5625,18.6427477 -21.25,40.4724347 l -21.25,39.690339 0,24.566037 0,24.56604 -13.75,0 -13.75,0 0,-24.31264 z"
     style="fill:#0797e4;fill-opacity:1" />
</svg>
