<?xml version="1.0" encoding="UTF-8" standalone="no"?>
<svg
   xmlns:dc="http://purl.org/dc/elements/1.1/"
   xmlns:cc="http://creativecommons.org/ns#"
   xmlns:rdf="http://www.w3.org/1999/02/22-rdf-syntax-ns#"
   xmlns:svg="http://www.w3.org/2000/svg"
   xmlns="http://www.w3.org/2000/svg"
   viewBox="0 0 882.3374 1234.4913"
   height="1234.4913"
   width="882.3374"
   version="1.1"
   id="svg4206">
  <metadata
     id="metadata4212">
    <rdf:RDF>
      <cc:Work
         rdf:about="">
        <dc:format>image/svg+xml</dc:format>
        <dc:type
           rdf:resource="http://purl.org/dc/dcmitype/StillImage" />
        <dc:title></dc:title>
      </cc:Work>
    </rdf:RDF>
  </metadata>
  <defs
     id="defs4210" />
  <path
     id="path4218"
     d="m 421.96395,1233.7228 c -103.25598,-10.7452 -191.27983,-71.2401 -236.56484,-162.5807 -14.02275,-28.284 -23.03515,-56.8466 -28.02468,-88.81726 -3.10708,-19.9089 -3.10446,-64.65392 0.005,-85.38732 19.80299,-132.04304 124.08414,-233.78455 256.45952,-250.21379 20.20062,-2.50711 64.85233,-1.79691 83.12503,1.32214 132.6678,22.64566 232.6329,128.87602 246.3648,261.80547 1.8001,17.42536 0.8042,58.6424 -1.8006,74.5237 -8.7082,53.09226 -29.9047,100.84906 -62.7159,141.30186 -25.9366,31.9772 -62.5944,61.2099 -98.7233,78.7267 -29.1977,14.1563 -58.0197,23.1385 -88.259,27.5057 -16.6853,2.4097 -54.66365,3.3955 -69.86603,1.8135 z m 58.41843,-78.1701 c 45.63,-6.7754 85.5343,-26.0962 119.0855,-57.6588 31.8167,-29.9309 55.0679,-71.5596 63.7417,-114.12236 11.7437,-57.62734 0.044,-116.99733 -32.6383,-165.62195 -27.1224,-40.35275 -66.1546,-69.88501 -113.119,-85.58738 -23.3105,-7.79377 -40.4395,-10.41864 -67.98833,-10.41864 -18.24063,0 -26.27494,0.56936 -38.03837,2.69561 -34.77273,6.28521 -68.6908,21.63445 -97.72466,44.2242 -8.07761,6.28476 -27.1555,25.47195 -35.11051,35.31165 -14.71155,18.197 -28.12938,43.33244 -36.03289,67.5 -8.31512,25.42618 -9.96857,36.72577 -9.96857,68.12501 0,34.6576 2.91872,50.7713 14.49057,79.99996 27.3002,68.9559 89.20076,120.3488 161.06334,133.7227 17.27331,3.2146 18.7224,3.3425 40.53566,3.5773 11.43819,0.1231 23.63466,-0.5491 31.70386,-1.7473 z m -51.54343,-59.4842 c -23.66049,-3.0158 -53.02242,-14.9555 -72.55053,-29.5018 -19.75645,-14.7164 -37.75646,-36.1155 -47.73552,-56.75 -10.82652,-22.38666 -15.2467,-39.90736 -16.19462,-64.19166 -3.09211,-79.21584 52.64202,-147.72572 131.31105,-161.41108 15.90215,-2.76637 48.55335,-1.75157 62.66965,1.94776 54.874,14.38044 97.0683,53.76821 113.5748,106.02062 11.9548,37.84366 8.6397,82.3842 -8.6937,116.80366 -30.708,60.978 -95.3227,95.6299 -162.38113,87.0825 z m 39.05312,-77.9453 c 28.84851,-6.8019 52.02941,-29.36916 59.80621,-58.22306 3.4619,-12.8446 2.9066,-31.81124 -1.2962,-44.27511 -4.8784,-14.46727 -9.88,-22.52187 -20.5899,-33.15799 -27.2164,-27.029 -69.00208,-31.02295 -100.95771,-9.64972 -11.42297,7.64015 -20.20696,17.4627 -26.59262,29.73675 -6.32627,12.15989 -8.75605,22.47346 -8.77943,37.26553 -0.0362,22.92074 7.04165,39.77974 23.70754,56.46994 11.57469,11.59156 23.1203,18.34676 37.17844,21.75276 9.58978,2.3234 27.84576,2.3628 37.52367,0.081 z M 37.756621,807.78497 c -2.97307,-4.62547 -12.58334,-19.34686 -21.35615,-32.71423 -8.7727973,-13.36736 -16.15185727,-24.89861 -16.39788727,-25.625 -0.24603,-0.72638 17.11023727,-12.74322 38.56951727,-26.70407 21.45926,-13.96086 54.4856,-35.54258 73.391849,-47.95939 18.90625,-12.41681 40.84375,-26.76492 48.75,-31.88468 7.90625,-5.11976 22.66498,-14.75678 32.79718,-21.41561 78.2643,-51.43486 158.09597,-103.67608 160.80869,-105.23196 2.94715,-1.69033 -3.07125,-1.93656 -61.10587,-2.5 l -64.375,-0.625 -0.32982,-40.3125 -0.32982,-40.3125 90.64232,0 90.64232,0 0,-34.99178 0,-34.99178 -90.3125,-0.32072 -90.3125,-0.32072 -0.32982,-40.3125 -0.32982,-40.3125 90.66379,0 90.66377,0 -0.33396,-31.5625 -0.33396,-31.5625 -86.875,-0.26583 c -47.78125,-0.14621 -88.42188,-0.28683 -90.3125,-0.3125 l -3.4375,-0.0467 0,-40 0,-40 90.625,0 90.625,0 0,-68.749997 0,-68.750003 40,0 40.00003,0 0,68.750003 0,68.749997 88.75,0 88.75,0 0,40 0,40 -2.8125,0.0417 c -1.5469,0.023 -41.3438,0.1636 -88.4375,0.3125 l -85.625,0.27074 -0.334,31.5625 -0.334,31.5625 88.7888,0 88.7888,0 -0.3298,40.3125 -0.3298,40.3125 -88.4375,0.32088 -88.4375,0.32089 0,34.99161 0,34.99162 90.625,0 90.625,0 0,40.61365 0,40.61365 -63.6514,0.32385 -63.6514,0.32385 12.0889,7.65817 c 6.6489,4.21199 27.8389,17.77089 47.0889,30.13088 19.25,12.35998 89.5625,57.47496 156.25,100.2555 66.6875,42.78053 122.0083,78.51573 122.9353,79.41156 1.4051,1.358 0.4352,3.57502 -5.8345,13.33632 -4.1358,6.43917 -13.5602,21.15058 -20.9431,32.69204 -7.3829,11.54145 -13.92,21.29135 -14.5269,21.66644 -0.6069,0.37508 -7.4096,-3.3948 -15.1172,-8.3775 -33.5024,-21.65839 -30.3632,-19.64055 -99.0136,-63.64596 -18.5625,-11.89869 -37.4063,-23.98933 -41.875,-26.86808 -4.4688,-2.87875 -26.125,-16.78026 -48.125,-30.89226 -82.176,-52.71213 -180.10713,-115.58496 -183.18888,-117.6092 -3.17107,-2.0829 -3.32098,-2.00809 -26.875,13.41054 -13.02739,8.52781 -32.12365,21.01772 -42.43615,27.75536 -10.3125,6.73764 -33.78808,22.11109 -52.16797,34.16323 -18.37987,12.05213 -57.47362,37.64581 -86.875,56.87485 -51.41735,33.62788 -80.25403,52.50623 -119.08203,77.9588 -9.96875,6.53472 -32.621019,21.33533 -50.338369,32.89026 l -32.21336,21.00895 -5.4056,-8.40995 z"
     style="fill:#009fe3;fill-opacity:1" />
  <path
     id="path4216"
     d=""
     style="fill:#000000" />
</svg>
